{
  "accessors": [
    {
      "bufferView": 3,
      "componentType": 5126,
      "count": 543,
      "max": [
        0.006177663803100586,
        0.014065131545066833,
        0.01760929822921753
      ],
      "min": [
        -0.00612187385559082,
        -0.009859457612037659,
        -0.037733495235443115
      ],
      "type": "VEC3"
    },
    {
      "bufferView": 3,
      "byteOffset": 6516,
      "componentType": 5126,
      "count": 543,
      "max": [
        0.9999368190765381,
        0.9999762773513794,
        0.9910877346992493
      ],
      "min": [
        -0.9999828338623047,
        -0.998130738735199,
        -0.9117755889892578
      ],
      "type": "VEC3"
    },
    {
      "bufferView": 2,
      "componentType": 5126,
      "count": 543,
      "max": [
        0.22033503651618958,
        0.41107481718063354
      ],
      "min": [
        0.06235425919294357,
        0.18442827463150024
      ],
      "type": "VEC2"
    },
    {
      "bufferView": 1,
      "componentType": 5125,
      "count": 2256,
      "type": "SCALAR"
    },
    {
      "bufferView": 3,
      "byteOffset": 13032,
      "componentType": 5126,
      "count": 543,
      "max": [
        0.006121158599853516,
        0.014065146446228027,
        0.01760917901992798
      ],
      "min": [
        -0.006178379058837891,
        -0.009859442710876465,
        -0.037733614444732666
      ],
      "type": "VEC3"
    },
    {
      "bufferView": 3,
      "byteOffset": 19548,
      "componentType": 5126,
      "count": 543,
      "max": [
        0.9999828338623047,
        0.9999762773513794,
        0.9910877346992493
      ],
      "min": [
        -0.9999368190765381,
        -0.998130738735199,
        -0.9117755889892578
      ],
      "type": "VEC3"
    },
    {
      "bufferView": 2,
      "byteOffset": 4344,
      "componentType": 5126,
      "count": 543,
      "max": [
        0.22033503651618958,
        0.41107481718063354
      ],
      "min": [
        0.06183917820453644,
        0.18442827463150024
      ],
      "type": "VEC2"
    },
    {
      "bufferView": 1,
      "byteOffset": 9024,
      "componentType": 5125,
      "count": 2256,
      "type": "SCALAR"
    },
    {
      "bufferView": 3,
      "byteOffset": 26064,
      "componentType": 5126,
      "count": 1056,
      "max": [
        0.2806829512119293,
        -0.06604398787021637,
        0.03256077319383621
      ],
      "min": [
        -0.2834545075893402,
        -0.3377003073692322,
        -0.01825203001499176
      ],
      "type": "VEC3"
    },
    {
      "bufferView": 3,
      "byteOffset": 38736,
      "componentType": 5126,
      "count": 1056,
      "max": [
        0.9999361038208008,
        1.0,
        0.9999960660934448
      ],
      "min": [
        -0.9999361038208008,
        -0.997994601726532,
        -0.999930202960968
      ],
      "type": "VEC3"
    },
    {
      "bufferView": 2,
      "byteOffset": 8688,
      "componentType": 5126,
      "count": 1056,
      "max": [
        1.0000007152557373,
        0.7177426815032959
      ],
      "min": [
        0.0001512765884399414,
        0.026195049285888672
      ],
      "type": "VEC2"
    },
    {
      "bufferView": 1,
      "byteOffset": 18048,
      "componentType": 5125,
      "count": 5484,
      "type": "SCALAR"
    },
    {
      "bufferView": 5,
      "componentType": 5126,
      "count": 23,
      "max": [
        1.0,
        0.9988278150558472,
        0.9958985447883606,
        0.0,
        0.39912086725234985,
        1.0,
        0.9962649345397949,
        0.0,
        0.9974343180656433,
        0.1757221519947052,
        1.0,
        0.0,
        0.06859815865755081,
        0.2839999794960022,
        0.330936074256897,
        1.0
      ],
      "min": [
        -1.0,
        -0.9988277554512024,
        -0.9958986043930054,
        0.0,
        -0.3991202712059021,
        -1.0000001192092896,
        -0.7041155099868774,
        0.0,
        -0.9974343180656433,
        -0.7041155099868774,
        -0.1272611916065216,
        0.0,
        -0.06604979932308197,
        -0.290670782327652,
        -0.23690234124660492,
        1.0
      ],
      "type": "MAT4"
    },
    {
      "bufferView": 0,
      "componentType": 5123,
      "count": 1056,
      "type": "VEC4"
    },
    {
      "bufferView": 4,
      "componentType": 5126,
      "count": 1056,
      "max": [
        1.0,
        0.49975934624671936,
        0.29751235246658325,
        0.14266371726989746
      ],
      "min": [
        0.3279953598976135,
        0.0,
        0.0,
        0.0
      ],
      "type": "VEC4"
    },
    {
      "bufferView": 6,
      "componentType": 5126,
      "count": 61,
      "max": [
        2.5
      ],
      "min": [
        0.0
      ],
      "type": "SCALAR"
    },
    {
      "bufferView": 7,
      "componentType": 5126,
      "count": 61,
      "max": [
        0.4126443564891815,
        0.2369973212480545,
        0.4127779006958008,
        0.9019262790679932
      ],
      "min": [
        0.33779847621917725,
        -0.23627471923828125,
        -0.6216637492179871,
        0.6657767295837402
      ],
      "type": "VEC4"
    },
    {
      "bufferView": 6,
      "byteOffset": 244,
      "componentType": 5126,
      "count": 61,
      "max": [
        2.5
      ],
      "min": [
        0.0
      ],
      "type": "SCALAR"
    },
    {
      "bufferView": 7,
      "byteOffset": 976,
      "componentType": 5126,
      "count": 61,
      "max": [
        0.10631118714809418,
        0.01057813223451376,
        0.09134437888860703,
        0.9943036437034607
      ],
      "min": [
        0.10578356683254242,
        -0.010578589513897896,
        -0.10652944445610046,
        0.9886098504066467
      ],
      "type": "VEC4"
    },
    {
      "bufferView": 6,
      "byteOffset": 488,
      "componentType": 5126,
      "count": 61,
      "max": [
        2.5
      ],
      "min": [
        0.0
      ],
      "type": "SCALAR"
    },
    {
      "bufferView": 7,
      "byteOffset": 1952,
      "componentType": 5126,
      "count": 61,
      "max": [
        0.14831487834453583,
        0.014757882803678513,
        0.08780515193939209,
        0.9888828992843628
      ],
      "min": [
        0.14757879078388214,
        -0.014757885597646236,
        -0.10898993909358978,
        0.982915997505188
      ],
      "type": "VEC4"
    },
    {
      "bufferView": 6,
      "byteOffset": 732,
      "componentType": 5126,
      "count": 61,
      "max": [
        2.5
      ],
      "min": [
        0.0
      ],
      "type": "SCALAR"
    },
    {
      "bufferView": 7,
      "byteOffset": 2928,
      "componentType": 5126,
      "count": 61,
      "max": [
        0.4126443564891815,
        0.23627471923828125,
        0.6216637492179871,
        0.9019262790679932
      ],
      "min": [
        0.33779847621917725,
        -0.2369973212480545,
        -0.4127779006958008,
        0.6657767295837402
      ],
      "type": "VEC4"
    },
    {
      "bufferView": 6,
      "byteOffset": 976,
      "componentType": 5126,
      "count": 61,
      "max": [
        2.5
      ],
      "min": [
        0.0
      ],
      "type": "SCALAR"
    },
    {
      "bufferView": 7,
      "byteOffset": 3904,
      "componentType": 5126,
      "count": 61,
      "max": [
        0.10631118714809418,
        0.010578589513897896,
        0.10652944445610046,
        0.9943036437034607
      ],
      "min": [
        0.10578356683254242,
        -0.01057813223451376,
        -0.09134437888860703,
        0.9886098504066467
      ],
      "type": "VEC4"
    },
    {
      "bufferView": 6,
      "byteOffset": 1220,
      "componentType": 5126,
      "count": 61,
      "max": [
        2.5
      ],
      "min": [
        0.0
      ],
      "type": "SCALAR"
    },
    {
      "bufferView": 7,
      "byteOffset": 4880,
      "componentType": 5126,
      "count": 61,
      "max": [
        0.14831487834453583,
        0.014757885597646236,
        0.10898993909358978,
        0.9888828992843628
      ],
      "min": [
        0.14757879078388214,
        -0.014757882803678513,
        -0.08780515193939209,
        0.982915997505188
      ],
      "type": "VEC4"
    }
  ],
  "animations": [
    {
      "channels": [
        {
          "sampler": 0,
          "target": {
            "node": 12,
            "path": "rotation"
          }
        },
        {
          "sampler": 1,
          "target": {
            "node": 13,
            "path": "rotation"
          }
        },
        {
          "sampler": 2,
          "target": {
            "node": 14,
            "path": "rotation"
          }
        },
        {
          "sampler": 3,
          "target": {
            "node": 27,
            "path": "rotation"
          }
        },
        {
          "sampler": 4,
          "target": {
            "node": 28,
            "path": "rotation"
          }
        },
        {
          "sampler": 5,
          "target": {
            "node": 29,
            "path": "rotation"
          }
        }
      ],
      "name": "wingFlap",
      "samplers": [
        {
          "input": 15,
          "interpolation": "LINEAR",
          "output": 16
        },
        {
          "input": 17,
          "interpolation": "LINEAR",
          "output": 18
        },
        {
          "input": 19,
          "interpolation": "LINEAR",
          "output": 20
        },
        {
          "input": 21,
          "interpolation": "LINEAR",
          "output": 22
        },
        {
          "input": 23,
          "interpolation": "LINEAR",
          "output": 24
        },
        {
          "input": 25,
          "interpolation": "LINEAR",
          "output": 26
        }
      ]
    }
  ],
  "asset": {
    "extras": {
      "author": "osuecampus (https://sketchfab.com/osuecampus)",
      "license": "CC-BY-4.0 (http://creativecommons.org/licenses/by/4.0/)",
      "source": "https://sketchfab.com/3d-models/american-kestrel-in-flight-befbb2c422fc4b92aecae8c5114967e9",
      "title": "American Kestrel - in Flight"
    },
    "generator": "Sketchfab-16.8.0",
    "version": "2.0"
  },
  "bufferViews": [
    {
      "buffer": 0,
      "byteLength": 8448,
      "byteStride": 8,
      "name": "shortBufferViews",
      "target": 34962
    },
    {
      "buffer": 0,
      "byteLength": 39984,
      "byteOffset": 8448,
      "name": "floatBufferViews",
      "target": 34963
    },
    {
      "buffer": 0,
      "byteLength": 17136,
      "byteOffset": 48432,
      "byteStride": 8,
      "name": "floatBufferViews",
      "target": 34962
    },
    {
      "buffer": 0,
      "byteLength": 51408,
      "byteOffset": 65568,
      "byteStride": 12,
      "name": "floatBufferViews",
      "target": 34962
    },
    {
      "buffer": 0,
      "byteLength": 16896,
      "byteOffset": 116976,
      "byteStride": 16,
      "name": "floatBufferViews",
      "target": 34962
    },
    {
      "buffer": 0,
      "byteLength": 1472,
      "byteOffset": 133872,
      "name": "floatBufferViews"
    },
    {
      "buffer": 0,
      "byteLength": 1464,
      "byteOffset": 135344,
      "name": "floatBufferViews"
    },
    {
      "buffer": 0,
      "byteLength": 5856,
      "byteOffset": 136808,
      "byteStride": 16,
      "name": "floatBufferViews"
    }
  ],
  "buffers": [
    {
      "byteLength": 142664,
      "uri": "scene.bin"
    }
  ],
  "images": [
    {
      "uri": "textures/AmericanKestrelFullComp_mat_baseColor.png"
    }
  ],
  "materials": [
    {
      "alphaMode": "MASK",
      "name": "AmericanKestrelFullComp_mat",
      "pbrMetallicRoughness": {
        "baseColorTexture": {
          "index": 0
        },
        "metallicFactor": 0.0
      }
    }
  ],
  "meshes": [
    {
      "name": "Object_0",
      "primitives": [
        {
          "attributes": {
            "NORMAL": 1,
            "POSITION": 0,
            "TEXCOORD_0": 2
          },
          "indices": 3,
          "material": 0,
          "mode": 4
        }
      ]
    },
    {
      "name": "Object_1",
      "primitives": [
        {
          "attributes": {
            "NORMAL": 5,
            "POSITION": 4,
            "TEXCOORD_0": 6
          },
          "indices": 7,
          "material": 0,
          "mode": 4
        }
      ]
    },
    {
      "name": "Object_2",
      "primitives": [
        {
          "attributes": {
            "JOINTS_0": 13,
            "NORMAL": 9,
            "POSITION": 8,
            "TEXCOORD_0": 10,
            "WEIGHTS_0": 14
          },
          "indices": 11,
          "material": 0,
          "mode": 4
        }
      ]
    }
  ],
  "nodes": [
    {
      "children": [
        1
      ],
      "matrix": [
        7.276765823364258,
        0.0,
        0.0,
        0.0,
        0.0,
        1.6157665923808868e-15,
        -7.276765823364258,
        0.0,
        0.0,
        7.276765823364258,
        1.6157665923808868e-15,
        0.0,
        0.0,
        0.0,
        0.0,
        1.0
      ],
      "name": "Sketchfab_model"
    },
    {
      "children": [
        2
      ],
      "name": "root"
    },
    {
      "children": [
        3
      ],
      "matrix": [
        1.0,
        0.0,
        0.0,
        0.0,
        0.0,
        2.220446049250313e-16,
        1.0,
        0.0,
        0.0,
        -1.0,
        2.220446049250313e-16,
        0.0,
        0.0,
        0.0,
        0.0,
        1.0
      ],
      "name": "GLTF_SceneRootNode"
    },
    {
      "children": [
        4,
        6,
        8
      ],
      "matrix": [
        -0.2230669260024965,
        3.634221992265538e-08,
        3.634221992265538e-08,
        0.0,
        -3.634221992265538e-08,
        2.971848447364011e-15,
        -0.22306692600249947,
        0.0,
        -3.634221992265538e-08,
        -0.22306692600249947,
        2.971848447364011e-15,
        0.0,
        0.0,
        0.0,
        0.0,
        1.0
      ],
      "name": "origin_26"
    },
    {
      "children": [
        5
      ],
      "matrix": [
        4.482959747314453,
        0.0,
        -0.0,
        0.0,
        -0.0,
        0.0,
        -4.482959747314453,
        0.0,
        0.0,
        4.482959747314453,
        0.0,
        0.0,
        -0.05267803370952606,
        0.3914438784122467,
        -0.14430499076843262,
        1.0
      ],
      "name": "leftFoot_23"
    },
    {
      "mesh": 0,
      "name": "Object_5"
    },
    {
      "children": [
        7
      ],
      "matrix": [
        4.482959747314453,
        0.0,
        -0.0,
        0.0,
        0.0,
        0.0,
        -4.482959747314453,
        0.0,
        0.0,
        4.482959747314453,
        0.0,
        0.0,
        0.0548848956823349,
        0.3914444148540497,
        -0.14430493116378784,
        1.0
      ],
      "name": "rightFoot_24"
    },
    {
      "mesh": 1,
      "name": "Object_7"
    },
    {
      "children": [
        9
      ],
      "matrix": [
        4.482959747314453,
        0.0,
        -0.0,
        0.0,
        0.0,
        0.0,
        -4.482959747314453,
        0.0,
        0.0,
        4.482959747314453,
        0.0,
        0.0,
        0.0011361449724063277,
        0.03568417578935623,
        -0.24749071896076202,
        1.0
      ],
      "name": "wingFlap.001_25"
    },
    {
      "children": [
        10,
        35,
        33
      ],
      "name": "GLTF_created_0"
    },
    {
      "children": [
        11,
        18,
        23,
        26
      ],
      "name": "GLTF_created_0_rootJoint"
    },
    {
      "children": [
        12,
        17
      ],
      "name": "shoulder_r_6",
      "rotation": [
        -0.33138933777809143,
        0.288949579000473,
        -0.5498363971710205,
        0.7101895809173584
      ],
      "scale": [
        1.0,
        0.9999999403953552,
        1.0
      ],
      "translation": [
        2.9715140938135765e-12,
        -0.0037947967648506165,
        -0.007969081401824951
      ]
    },
    {
      "children": [
        13,
        16
      ],
      "name": "wingLength01_r_4",
      "rotation": [
        0.41264429688453674,
        0.00044104718836024404,
        -0.1274888664484024,
        0.9019263386726379
      ],
      "scale": [
        0.9999998211860657,
        1.0,
        1.0
      ],
      "translation": [
        6.984919309616089e-10,
        0.04271676018834114,
        9.313225746154785e-10
      ]
    },
    {
      "children": [
        14,
        15
      ],
      "name": "wingLength02_r_2",
      "rotation": [
        0.10631120204925537,
        -2.3082768052518077e-07,
        -0.007630403619259596,
        0.9943036437034607
      ],
      "scale": [
        0.9999999403953552,
        0.9999999403953552,
        0.9999999403953552
      ],
      "translation": [
        -1.4551915228366852e-10,
        0.0963568240404129,
        -1.862645149230957e-09
      ]
    },
    {
      "name": "wingLength03_r_0",
      "rotation": [
        0.14831487834453583,
        -1.059516585577569e-09,
        -0.010645212605595589,
        0.9888828992843628
      ],
      "translation": [
        -1.0477378964424133e-09,
        0.07774659246206284,
        -5.122274160385132e-09
      ]
    },
    {
      "name": "wingWidth03_r_1",
      "rotation": [
        0.6661727428436279,
        1.3013882949053368e-07,
        -0.0478140264749527,
        0.744263231754303
      ],
      "scale": [
        0.9999999403953552,
        1.0,
        1.0
      ],
      "translation": [
        -1.0477378964424133e-09,
        0.07774659246206284,
        -5.122274160385132e-09
      ]
    },
    {
      "name": "wingWidth02_r_3",
      "rotation": [
        0.702795147895813,
        -1.679946564081547e-07,
        -0.05044255405664444,
        0.7096017003059387
      ],
      "scale": [
        0.9999999403953552,
        1.0,
        1.0000001192092896
      ],
      "translation": [
        -1.4551915228366852e-10,
        0.0963568240404129,
        -1.862645149230957e-09
      ]
    },
    {
      "name": "wingWidth01_r_5",
      "rotation": [
        0.9463053345680237,
        -0.0392514206469059,
        -0.04084567725658417,
        0.31827226281166077
      ],
      "scale": [
        1.0,
        1.0000001192092896,
        1.0000008344650269
      ],
      "translation": [
        6.984919309616089e-10,
        0.04271676018834114,
        9.313225746154785e-10
      ]
    },
    {
      "children": [
        19,
        21
      ],
      "name": "back_11",
      "rotation": [
        0.0,
        0.7071068286895752,
        0.7071068286895752,
        0.0
      ],
      "translation": [
        2.9715140938135765e-12,
        -0.0037947967648506165,
        -0.007969081401824951
      ]
    },
    {
      "children": [
        20
      ],
      "name": "tail01_r_8",
      "rotation": [
        0.0,
        0.0,
        0.20384007692337036,
        0.9790042042732239
      ],
      "scale": [
        0.9999999403953552,
        1.0000001192092896,
        1.0
      ],
      "translation": [
        9.954703727999004e-12,
        0.07881903648376465,
        0.0
      ]
    },
    {
      "name": "tail02_r_7",
      "rotation": [
        0.0,
        0.0,
        -0.021691709756851196,
        0.9997647404670715
      ],
      "scale": [
        1.0000001192092896,
        1.0,
        1.0
      ],
      "translation": [
        -3.725290298461914e-09,
        0.06582725048065186,
        -3.725290298461914e-09
      ]
    },
    {
      "children": [
        22
      ],
      "name": "tail01_l_10",
      "rotation": [
        0.0,
        0.0,
        -0.20384007692337036,
        0.9790042042732239
      ],
      "scale": [
        0.9999999403953552,
        1.0000001192092896,
        1.0
      ],
      "translation": [
        9.954703727999004e-12,
        0.07881903648376465,
        0.0
      ]
    },
    {
      "name": "tail02_l_9",
      "rotation": [
        0.0,
        0.0,
        0.0216917023062706,
        0.9997647404670715
      ],
      "translation": [
        -3.725290298461914e-09,
        0.06582726538181305,
        0.0
      ]
    },
    {
      "children": [
        24
      ],
      "name": "spine_14",
      "rotation": [
        -0.7071068286895752,
        0.0,
        0.0,
        0.7071068286895752
      ],
      "scale": [
        1.0,
        0.9999999403953552,
        1.0
      ],
      "translation": [
        2.9715140938135765e-12,
        -0.0037947967648506165,
        -0.007969081401824951
      ]
    },
    {
      "children": [
        25
      ],
      "name": "neck_13",
      "rotation": [
        -0.13348200917243958,
        -1.924862313505543e-18,
        0.0,
        0.9910512566566467
      ],
      "translation": [
        -5.5067062021407764e-14,
        0.05822671204805374,
        0.0
      ]
    },
    {
      "name": "face_12",
      "rotation": [
        -0.25389665365219116,
        -5.387258187666214e-16,
        1.291410042427311e-15,
        0.9672314524650574
      ],
      "scale": [
        1.0,
        1.0,
        1.0000001192092896
      ],
      "translation": [
        -2.627554424039502e-11,
        0.02131165936589241,
        1.8407987356638955e-09
      ]
    },
    {
      "children": [
        27,
        32
      ],
      "name": "shoulder_l_21",
      "rotation": [
        -0.33138933777809143,
        -0.288949579000473,
        0.5498363971710205,
        0.7101895809173584
      ],
      "scale": [
        1.0,
        0.9999999403953552,
        1.0
      ],
      "translation": [
        2.9715140938135765e-12,
        -0.0037947967648506165,
        -0.007969081401824951
      ]
    },
    {
      "children": [
        28,
        31
      ],
      "name": "wingLength01_l_19",
      "rotation": [
        0.41264432668685913,
        -0.0004410430556163192,
        0.1274888664484024,
        0.9019263386726379
      ],
      "scale": [
        0.9999998807907104,
        0.9999999403953552,
        1.0
      ],
      "translation": [
        6.984919309616089e-10,
        0.04271676391363144,
        4.656612873077393e-10
      ]
    },
    {
      "children": [
        29,
        30
      ],
      "name": "wingLength02_l_17",
      "rotation": [
        0.10631120949983597,
        2.289543630240587e-07,
        0.007630404084920883,
        0.9943036437034607
      ],
      "scale": [
        0.9999999403953552,
        1.0,
        0.9999999403953552
      ],
      "translation": [
        -1.6880221664905548e-09,
        0.0963568314909935,
        2.7939677238464355e-09
      ]
    },
    {
      "name": "wingLength03_l_15",
      "rotation": [
        0.14831487834453583,
        4.826686605952091e-09,
        0.01064521074295044,
        0.9888829588890076
      ],
      "translation": [
        3.3760443329811096e-09,
        0.07774661481380463,
        -7.450580596923828e-09
      ]
    },
    {
      "name": "wingWidth03_l_16",
      "rotation": [
        0.6661727428436279,
        -1.2763615586663946e-07,
        0.0478140264749527,
        0.744263231754303
      ],
      "scale": [
        0.9999999403953552,
        1.0,
        1.0
      ],
      "translation": [
        3.3760443329811096e-09,
        0.07774661481380463,
        -7.450580596923828e-09
      ]
    },
    {
      "name": "wingWidth02_l_18",
      "rotation": [
        0.702795147895813,
        1.679946564081547e-07,
        0.05044255405664444,
        0.7096017003059387
      ],
      "scale": [
        0.9999999403953552,
        1.0,
        1.0000001192092896
      ],
      "translation": [
        -1.6880221664905548e-09,
        0.0963568314909935,
        2.7939677238464355e-09
      ]
    },
    {
      "name": "wingWidth01_l_20",
      "rotation": [
        0.9463053345680237,
        0.0392514169216156,
        0.04084567353129387,
        0.318272203207016
      ],
      "scale": [
        1.0000001192092896,
        1.000000238418579,
        1.0000007152557373
      ],
      "translation": [
        6.984919309616089e-10,
        0.04271676391363144,
        4.656612873077393e-10
      ]
    },
    {
      "children": [
        34
      ],
      "matrix": [
        0.2230669147986565,
        0.0,
        -4.064114284713069e-24,
        0.0,
        -3.5001871897775126e-25,
        7.888609052210118e-31,
        0.22306691479865653,
        0.0,
        0.0,
        -0.22306691479865653,
        -3.944304526105059e-31,
        0.0,
        -0.00025343635375868435,
        -0.055206991119878555,
        -0.00795995900046461,
        1.0
      ],
      "name": "AmericanKestrelBody-inFlight_22_correction"
    },
    {
      "name": "AmericanKestrelBody-inFlight_22"
    },
    {
      "mesh": 2,
      "name": "Object_35",
      "skin": 0
    }
  ],
  "samplers": [
    {
      "magFilter": 9729,
      "minFilter": 9987,
      "wrapS": 10497,
      "wrapT": 10497
    }
  ],
  "scene": 0,
  "scenes": [
    {
      "name": "Sketchfab_Scene",
      "nodes": [
        0
      ]
    }
  ],
  "skins": [
    {
      "inverseBindMatrices": 12,
      "joints": [
        10,
        11,
        12,
        13,
        14,
        15,
        16,
        17,
        18,
        19,
        20,
        21,
        22,
        23,
        24,
        25,
        26,
        27,
        28,
        29,
        30,
        31,
        32
      ],
      "skeleton": 10
    }
  ],
  "textures": [
    {
      "sampler": 0,
      "source": 0
    }
  ]
}
