{
  "accessors": [
    {
      "bufferView": 2,
      "componentType": 5126,
      "count": 3700,
      "max": [
        812.5765991210938,
        166.70388793945313,
        93.00025939941406
      ],
      "min": [
        -812.5765991210938,
        -138.962646484375,
        -168.32632446289063
      ],
      "type": "VEC3"
    },
    {
      "bufferView": 2,
      "byteOffset": 44400,
      "componentType": 5126,
      "count": 3700,
      "max": [
        1.0,
        0.9998199343681335,
        1.0
      ],
      "min": [
        -1.0,
        -0.9998199343681335,
        -1.0
      ],
      "type": "VEC3"
    },
    {
      "bufferView": 1,
      "componentType": 5126,
      "count": 3700,
      "max": [
        0.984375,
        0.7247582077980042
      ],
      "min": [
        0.14380937814712524,
        0.015624959953129292
      ],
      "type": "VEC2"
    },
    {
      "bufferView": 0,
      "componentType": 5125,
      "count": 9840,
      "type": "SCALAR"
    },
    {
      "bufferView": 2,
      "byteOffset": 88800,
      "componentType": 5126,
      "count": 5303,
      "max": [
        762.57666015625,
        157.58428955078125,
        375.7454833984375
      ],
      "min": [
        -762.57666015625,
        -148.25148010253906,
        -387.8567810058594
      ],
      "type": "VEC3"
    },
    {
      "bufferView": 2,
      "byteOffset": 152436,
      "componentType": 5126,
      "count": 5303,
      "max": [
        1.0,
        1.0,
        1.0
      ],
      "min": [
        -1.0,
        -1.0,
        -1.0
      ],
      "type": "VEC3"
    },
    {
      "bufferView": 1,
      "byteOffset": 29600,
      "componentType": 5126,
      "count": 5303,
      "max": [
        0.8958951234817505,
        0.9749999046325684
      ],
      "min": [
        0.025000005960464478,
        0.2801579236984253
      ],
      "type": "VEC2"
    },
    {
      "bufferView": 0,
      "byteOffset": 39360,
      "componentType": 5125,
      "count": 10785,
      "type": "SCALAR"
    },
    {
      "bufferView": 2,
      "byteOffset": 216072,
      "componentType": 5126,
      "count": 752,
      "max": [
        233.72488403320313,
        48.1006965637207,
        55.70594787597656
      ],
      "min": [
        -233.72488403320313,
        -40.94901657104492,
        -41.53768539428711
      ],
      "type": "VEC3"
    },
    {
      "bufferView": 2,
      "byteOffset": 225096,
      "componentType": 5126,
      "count": 752,
      "max": [
        1.0,
        0.9962643980979919,
        1.0
      ],
      "min": [
        -1.0,
        -0.9962643980979919,
        -1.0
      ],
      "type": "VEC3"
    },
    {
      "bufferView": 1,
      "byteOffset": 72024,
      "componentType": 5126,
      "count": 752,
      "max": [
        0.9843749403953552,
        0.9259016513824463
      ],
      "min": [
        0.45870429277420044,
        0.7831889390945435
      ],
      "type": "VEC2"
    },
    {
      "bufferView": 0,
      "byteOffset": 82500,
      "componentType": 5125,
      "count": 1944,
      "type": "SCALAR"
    },
    {
      "bufferView": 2,
      "byteOffset": 234120,
      "componentType": 5126,
      "count": 666,
      "max": [
        230.2248992919922,
        38.716705322265625,
        58.71482467651367
      ],
      "min": [
        -230.2248992919922,
        -36.83953857421875,
        -41.24787521362305
      ],
      "type": "VEC3"
    },
    {
      "bufferView": 2,
      "byteOffset": 242112,
      "componentType": 5126,
      "count": 666,
      "max": [
        1.0,
        0.9999188780784607,
        1.0
      ],
      "min": [
        -1.0,
        -0.9999188780784607,
        -1.0
      ],
      "type": "VEC3"
    },
    {
      "bufferView": 1,
      "byteOffset": 78040,
      "componentType": 5126,
      "count": 666,
      "max": [
        0.22499996423721313,
        0.46563297510147095
      ],
      "min": [
        0.02499997615814209,
        0.2739636301994324
      ],
      "type": "VEC2"
    },
    {
      "bufferView": 0,
      "byteOffset": 90276,
      "componentType": 5125,
      "count": 1770,
      "type": "SCALAR"
    },
    {
      "bufferView": 2,
      "byteOffset": 250104,
      "componentType": 5126,
      "count": 1267,
      "max": [
        95.72496032714844,
        70.8781509399414,
        265.8050537109375
      ],
      "min": [
        -95.72480010986328,
        -10.004770278930664,
        -9.650995254516602
      ],
      "type": "VEC3"
    },
    {
      "bufferView": 2,
      "byteOffset": 265308,
      "componentType": 5126,
      "count": 1267,
      "max": [
        1.0,
        1.0,
        1.0
      ],
      "min": [
        -1.0,
        -1.0,
        -1.0
      ],
      "type": "VEC3"
    },
    {
      "bufferView": 1,
      "byteOffset": 83368,
      "componentType": 5126,
      "count": 1267,
      "max": [
        0.8736129403114319,
        0.9750000834465027
      ],
      "min": [
        0.030006393790245056,
        0.2750000059604645
      ],
      "type": "VEC2"
    },
    {
      "bufferView": 0,
      "byteOffset": 97356,
      "componentType": 5125,
      "count": 2994,
      "type": "SCALAR"
    },
    {
      "bufferView": 2,
      "byteOffset": 280512,
      "componentType": 5126,
      "count": 821,
      "max": [
        701.3362426757813,
        193.83444213867188,
        54.840171813964844
      ],
      "min": [
        -821.1669921875,
        -44.37287902832031,
        -110.59259033203125
      ],
      "type": "VEC3"
    },
    {
      "bufferView": 2,
      "byteOffset": 290364,
      "componentType": 5126,
      "count": 821,
      "max": [
        0.9999973773956299,
        0.9999895095825195,
        0.999998927116394
      ],
      "min": [
        -0.9999973773956299,
        -0.9999899864196777,
        -0.9999982714653015
      ],
      "type": "VEC3"
    },
    {
      "bufferView": 1,
      "byteOffset": 93504,
      "componentType": 5126,
      "count": 821,
      "max": [
        0.9517091512680054,
        0.9749999642372131
      ],
      "min": [
        0.024999797344207764,
        0.022298604249954224
      ],
      "type": "VEC2"
    },
    {
      "bufferView": 0,
      "byteOffset": 109332,
      "componentType": 5125,
      "count": 2268,
      "type": "SCALAR"
    },
    {
      "bufferView": 2,
      "byteOffset": 300216,
      "componentType": 5126,
      "count": 88,
      "max": [
        31.245162963867188,
        135.45005798339844,
        37.399776458740234
      ],
      "min": [
        -31.245162963867188,
        -135.45005798339844,
        -32.600196838378906
      ],
      "type": "VEC3"
    },
    {
      "bufferView": 2,
      "byteOffset": 301272,
      "componentType": 5126,
      "count": 88,
      "max": [
        1.0,
        1.0,
        0.991445004940033
      ],
      "min": [
        -1.0,
        -1.0,
        -1.0
      ],
      "type": "VEC3"
    },
    {
      "bufferView": 1,
      "byteOffset": 100072,
      "componentType": 5126,
      "count": 88,
      "max": [
        0.11500990390777588,
        0.3379756808280945
      ],
      "min": [
        0.015625,
        0.015625
      ],
      "type": "VEC2"
    },
    {
      "bufferView": 0,
      "byteOffset": 118404,
      "componentType": 5125,
      "count": 216,
      "type": "SCALAR"
    },
    {
      "bufferView": 2,
      "byteOffset": 302328,
      "componentType": 5126,
      "count": 1364,
      "max": [
        114.00008392333984,
        143.05006408691406,
        306.1496887207031
      ],
      "min": [
        -113.99991607666016,
        -143.05006408691406,
        -29.850229263305664
      ],
      "type": "VEC3"
    },
    {
      "bufferView": 2,
      "byteOffset": 318696,
      "componentType": 5126,
      "count": 1364,
      "max": [
        1.0,
        1.0,
        1.0
      ],
      "min": [
        -1.0,
        -1.0,
        -1.0
      ],
      "type": "VEC3"
    },
    {
      "bufferView": 1,
      "byteOffset": 100776,
      "componentType": 5126,
      "count": 1364,
      "max": [
        0.8788524270057678,
        0.9749999046325684
      ],
      "min": [
        0.024291425943374634,
        0.2750000059604645
      ],
      "type": "VEC2"
    },
    {
      "bufferView": 0,
      "byteOffset": 119268,
      "componentType": 5125,
      "count": 3120,
      "type": "SCALAR"
    },
    {
      "bufferView": 2,
      "byteOffset": 335064,
      "componentType": 5126,
      "count": 466,
      "max": [
        13.800048828125,
        170.0,
        7.999992370605469
      ],
      "min": [
        -13.79995346069336,
        -170.0,
        -184.00001525878906
      ],
      "type": "VEC3"
    },
    {
      "bufferView": 2,
      "byteOffset": 340656,
      "componentType": 5126,
      "count": 466,
      "max": [
        1.0,
        1.0,
        1.0
      ],
      "min": [
        -1.0,
        -1.0,
        -1.0
      ],
      "type": "VEC3"
    },
    {
      "bufferView": 1,
      "byteOffset": 111688,
      "componentType": 5126,
      "count": 466,
      "max": [
        0.8331315517425537,
        0.9749999642372131
      ],
      "min": [
        0.02499997615814209,
        0.032696157693862915
      ],
      "type": "VEC2"
    },
    {
      "bufferView": 0,
      "byteOffset": 131748,
      "componentType": 5125,
      "count": 1188,
      "type": "SCALAR"
    },
    {
      "bufferView": 2,
      "byteOffset": 346248,
      "componentType": 5126,
      "count": 128,
      "max": [
        13.499985694885254,
        13.499985694885254,
        1.0001145601272583
      ],
      "min": [
        -285.3497619628906,
        -98.77240753173828,
        -1.0000052452087402
      ],
      "type": "VEC3"
    },
    {
      "bufferView": 2,
      "byteOffset": 347784,
      "componentType": 5126,
      "count": 128,
      "max": [
        1.0,
        0.9999908208847046,
        1.0
      ],
      "min": [
        -1.0,
        -0.9999523758888245,
        -1.0
      ],
      "type": "VEC3"
    },
    {
      "bufferView": 1,
      "byteOffset": 115416,
      "componentType": 5126,
      "count": 128,
      "max": [
        0.31616461277008057,
        0.22499990463256836
      ],
      "min": [
        0.2758805751800537,
        0.024999946355819702
      ],
      "type": "VEC2"
    },
    {
      "bufferView": 0,
      "byteOffset": 136500,
      "componentType": 5125,
      "count": 336,
      "type": "SCALAR"
    },
    {
      "bufferView": 2,
      "byteOffset": 349320,
      "componentType": 5126,
      "count": 128,
      "max": [
        133.73362731933594,
        13.499985694885254,
        0.9999904632568359
      ],
      "min": [
        -13.499999046325684,
        -98.77240753173828,
        -1.0000543594360352
      ],
      "type": "VEC3"
    },
    {
      "bufferView": 2,
      "byteOffset": 350856,
      "componentType": 5126,
      "count": 128,
      "max": [
        1.0,
        0.9999908208847046,
        1.0
      ],
      "min": [
        -1.0,
        -0.9999524354934692,
        -1.0
      ],
      "type": "VEC3"
    },
    {
      "bufferView": 1,
      "byteOffset": 116440,
      "componentType": 5126,
      "count": 128,
      "max": [
        0.3562611937522888,
        0.22499990463256836
      ],
      "min": [
        0.2843824625015259,
        0.024999946355819702
      ],
      "type": "VEC2"
    },
    {
      "bufferView": 0,
      "byteOffset": 137844,
      "componentType": 5125,
      "count": 336,
      "type": "SCALAR"
    },
    {
      "bufferView": 2,
      "byteOffset": 352392,
      "componentType": 5126,
      "count": 775,
      "max": [
        24.0,
        24.000003814697266,
        66.69990539550781
      ],
      "min": [
        -24.0,
        -23.999998092651367,
        -18.000083923339844
      ],
      "type": "VEC3"
    },
    {
      "bufferView": 2,
      "byteOffset": 361692,
      "componentType": 5126,
      "count": 775,
      "max": [
        1.0,
        1.0,
        1.0
      ],
      "min": [
        -1.0,
        -1.0,
        -1.0
      ],
      "type": "VEC3"
    },
    {
      "bufferView": 1,
      "byteOffset": 117464,
      "componentType": 5126,
      "count": 775,
      "max": [
        0.9750000238418579,
        0.9605194926261902
      ],
      "min": [
        0.022260278463363647,
        0.025000005960464478
      ],
      "type": "VEC2"
    },
    {
      "bufferView": 0,
      "byteOffset": 139188,
      "componentType": 5125,
      "count": 1890,
      "type": "SCALAR"
    },
    {
      "bufferView": 2,
      "byteOffset": 370992,
      "componentType": 5126,
      "count": 4670,
      "max": [
        206.08468627929688,
        141.48924255371094,
        97.01062774658203
      ],
      "min": [
        -12.5,
        -28.2775936126709,
        -1.4988702787377406e-05
      ],
      "type": "VEC3"
    },
    {
      "bufferView": 2,
      "byteOffset": 427032,
      "componentType": 5126,
      "count": 4670,
      "max": [
        1.0,
        1.0,
        1.0
      ],
      "min": [
        -1.0,
        -1.0,
        -1.0
      ],
      "type": "VEC3"
    },
    {
      "bufferView": 1,
      "byteOffset": 123664,
      "componentType": 5126,
      "count": 4670,
      "max": [
        0.9749999642372131,
        0.9702303409576416
      ],
      "min": [
        0.024999916553497314,
        0.019590169191360474
      ],
      "type": "VEC2"
    },
    {
      "bufferView": 0,
      "byteOffset": 146748,
      "componentType": 5125,
      "count": 11466,
      "type": "SCALAR"
    },
    {
      "bufferView": 2,
      "byteOffset": 483072,
      "componentType": 5126,
      "count": 392,
      "max": [
        7.999996662139893,
        8.000008583068848,
        1.5999559164047241
      ],
      "min": [
        -7.999996662139893,
        -7.999988079071045,
        -63.59993362426758
      ],
      "type": "VEC3"
    },
    {
      "bufferView": 2,
      "byteOffset": 487776,
      "componentType": 5126,
      "count": 392,
      "max": [
        1.0,
        1.0,
        1.0
      ],
      "min": [
        -1.0,
        -1.0,
        -1.0
      ],
      "type": "VEC3"
    },
    {
      "bufferView": 1,
      "byteOffset": 161024,
      "componentType": 5126,
      "count": 392,
      "max": [
        0.14922380447387695,
        0.2250000238418579
      ],
      "min": [
        0.02656586468219757,
        0.025000005960464478
      ],
      "type": "VEC2"
    },
    {
      "bufferView": 0,
      "byteOffset": 192612,
      "componentType": 5125,
      "count": 888,
      "type": "SCALAR"
    },
    {
      "bufferView": 2,
      "byteOffset": 492480,
      "componentType": 5126,
      "count": 125,
      "max": [
        7.250001907348633,
        7.25001859664917,
        6.9999918937683105
      ],
      "min": [
        -7.249998092651367,
        -7.249980926513672,
        -1.0000025033950806
      ],
      "type": "VEC3"
    },
    {
      "bufferView": 2,
      "byteOffset": 493980,
      "componentType": 5126,
      "count": 125,
      "max": [
        1.0,
        1.0,
        1.0
      ],
      "min": [
        -1.0,
        -1.0,
        -1.0
      ],
      "type": "VEC3"
    },
    {
      "bufferView": 1,
      "byteOffset": 164160,
      "componentType": 5126,
      "count": 125,
      "max": [
        0.9285924434661865,
        0.9749999642372131
      ],
      "min": [
        0.7753115892410278,
        0.7749999761581421
      ],
      "type": "VEC2"
    },
    {
      "bufferView": 0,
      "byteOffset": 196164,
      "componentType": 5125,
      "count": 294,
      "type": "SCALAR"
    },
    {
      "bufferView": 2,
      "byteOffset": 495480,
      "componentType": 5126,
      "count": 984,
      "max": [
        9.500005722045898,
        14.400015830993652,
        8.800004005432129
      ],
      "min": [
        -9.5,
        -10.599994659423828,
        -9.999992370605469
      ],
      "type": "VEC3"
    },
    {
      "bufferView": 2,
      "byteOffset": 507288,
      "componentType": 5126,
      "count": 984,
      "max": [
        1.0,
        1.0,
        1.0
      ],
      "min": [
        -1.0,
        -1.0,
        -1.0
      ],
      "type": "VEC3"
    },
    {
      "bufferView": 1,
      "byteOffset": 165160,
      "componentType": 5126,
      "count": 984,
      "max": [
        0.9793351292610168,
        0.9750000238418579
      ],
      "min": [
        0.7830984592437744,
        0.7749999761581421
      ],
      "type": "VEC2"
    },
    {
      "bufferView": 0,
      "byteOffset": 197340,
      "componentType": 5125,
      "count": 2154,
      "type": "SCALAR"
    },
    {
      "bufferView": 2,
      "byteOffset": 519096,
      "componentType": 5126,
      "count": 1110,
      "max": [
        17.342679977416992,
        25.499996185302734,
        5.200004577636719
      ],
      "min": [
        -2.146571397781372,
        -14.499998092651367,
        -8.000003814697266
      ],
      "type": "VEC3"
    },
    {
      "bufferView": 2,
      "byteOffset": 532416,
      "componentType": 5126,
      "count": 1110,
      "max": [
        1.0,
        1.0,
        1.0
      ],
      "min": [
        -1.0,
        -1.0,
        -1.0
      ],
      "type": "VEC3"
    },
    {
      "bufferView": 1,
      "byteOffset": 173032,
      "componentType": 5126,
      "count": 1110,
      "max": [
        0.9750000238418579,
        0.9668018817901611
      ],
      "min": [
        0.027862712740898132,
        0.024345993995666504
      ],
      "type": "VEC2"
    },
    {
      "bufferView": 0,
      "byteOffset": 205956,
      "componentType": 5125,
      "count": 2358,
      "type": "SCALAR"
    },
    {
      "bufferView": 2,
      "byteOffset": 545736,
      "componentType": 5126,
      "count": 466,
      "max": [
        13.800239562988281,
        170.0,
        7.999992370605469
      ],
      "min": [
        -13.799762725830078,
        -170.0,
        -184.00001525878906
      ],
      "type": "VEC3"
    },
    {
      "bufferView": 2,
      "byteOffset": 551328,
      "componentType": 5126,
      "count": 466,
      "max": [
        1.0,
        1.0,
        1.0
      ],
      "min": [
        -1.0,
        -1.0,
        -1.0
      ],
      "type": "VEC3"
    },
    {
      "bufferView": 1,
      "byteOffset": 181912,
      "componentType": 5126,
      "count": 466,
      "max": [
        0.8331315517425537,
        0.9749999642372131
      ],
      "min": [
        0.02499997615814209,
        0.032696157693862915
      ],
      "type": "VEC2"
    },
    {
      "bufferView": 0,
      "byteOffset": 215388,
      "componentType": 5125,
      "count": 1188,
      "type": "SCALAR"
    },
    {
      "bufferView": 2,
      "byteOffset": 556920,
      "componentType": 5126,
      "count": 1610,
      "max": [
        75.00022888183594,
        25.0,
        704.0000610351563
      ],
      "min": [
        -75.00022888183594,
        1.4901161193847656e-06,
        -704.0000610351563
      ],
      "type": "VEC3"
    },
    {
      "bufferView": 2,
      "byteOffset": 576240,
      "componentType": 5126,
      "count": 1610,
      "max": [
        1.0,
        1.0,
        1.0
      ],
      "min": [
        -1.0,
        0.0,
        -1.0
      ],
      "type": "VEC3"
    },
    {
      "bufferView": 1,
      "byteOffset": 185640,
      "componentType": 5126,
      "count": 1610,
      "max": [
        0.7790590524673462,
        0.9750000238418579
      ],
      "min": [
        0.026278764009475708,
        0.2750000059604645
      ],
      "type": "VEC2"
    },
    {
      "bufferView": 0,
      "byteOffset": 220140,
      "componentType": 5125,
      "count": 2790,
      "type": "SCALAR"
    }
  ],
  "asset": {
    "extras": {
      "author": "UNDERPOLY Project (https://sketchfab.com/underpolyproject)",
      "license": "CC-BY-4.0 (http://creativecommons.org/licenses/by/4.0/)",
      "source": "https://sketchfab.com/3d-models/underpoly-the-first-flight-free-b3721ea2891a483fbded7bbd9bb2fb1a",
      "title": "UNDERPOLY: The First Flight (FREE)"
    },
    "generator": "Sketchfab-15.55.0",
    "version": "2.0"
  },
  "bufferViews": [
    {
      "buffer": 0,
      "byteLength": 231300,
      "name": "floatBufferViews",
      "target": 34963
    },
    {
      "buffer": 0,
      "byteLength": 198520,
      "byteOffset": 231300,
      "byteStride": 8,
      "name": "floatBufferViews",
      "target": 34962
    },
    {
      "buffer": 0,
      "byteLength": 595560,
      "byteOffset": 429820,
      "byteStride": 12,
      "name": "floatBufferViews",
      "target": 34962
    }
  ],
  "buffers": [
    {
      "byteLength": 1025380,
      "uri": "scene.bin"
    }
  ],
  "extensionsUsed": [
    "KHR_materials_specular"
  ],
  "images": [
    {
      "uri": "textures/VehiclesGeneric_baseColor.png"
    }
  ],
  "materials": [
    {
      "doubleSided": true,
      "extensions": {
        "KHR_materials_specular": {
          "specularColorFactor": [
            1.0,
            1.0,
            1.0
          ],
          "specularFactor": 0.3
        }
      },
      "name": "Vehicle_Body",
      "pbrMetallicRoughness": {
        "baseColorFactor": [
          0.5775804404296506,
          0.5775804404296506,
          0.4019777798321956,
          1.0
        ],
        "metallicFactor": 0.0,
        "roughnessFactor": 0.3
      }
    },
    {
      "doubleSided": true,
      "extensions": {
        "KHR_materials_specular": {
          "specularColorFactor": [
            1.0,
            1.0,
            1.0
          ],
          "specularFactor": 1.0
        }
      },
      "name": "VehiclesGeneric",
      "pbrMetallicRoughness": {
        "baseColorTexture": {
          "index": 0
        },
        "metallicFactor": 0.0,
        "roughnessFactor": 0.5
      }
    }
  ],
  "meshes": [
    {
      "name": "V0_TheFirstFlight_0_Body_Vehicle_Body_0",
      "primitives": [
        {
          "attributes": {
            "NORMAL": 1,
            "POSITION": 0,
            "TEXCOORD_0": 2
          },
          "indices": 3,
          "material": 0,
          "mode": 4
        }
      ]
    },
    {
      "name": "V0_TheFirstFlight_0_Body_VehiclesGeneric_0",
      "primitives": [
        {
          "attributes": {
            "NORMAL": 5,
            "POSITION": 4,
            "TEXCOORD_0": 6
          },
          "indices": 7,
          "material": 1,
          "mode": 4
        }
      ]
    },
    {
      "name": "V0_TheFirstFlight_0_Elevator_Vehicle_Body_0",
      "primitives": [
        {
          "attributes": {
            "NORMAL": 9,
            "POSITION": 8,
            "TEXCOORD_0": 10
          },
          "indices": 11,
          "material": 0,
          "mode": 4
        }
      ]
    },
    {
      "name": "V0_TheFirstFlight_0_Elevator_VehiclesGeneric_0",
      "primitives": [
        {
          "attributes": {
            "NORMAL": 13,
            "POSITION": 12,
            "TEXCOORD_0": 14
          },
          "indices": 15,
          "material": 1,
          "mode": 4
        }
      ]
    },
    {
      "name": "V0_TheFirstFlight_0_ElevatorGear_VehiclesGeneric_0",
      "primitives": [
        {
          "attributes": {
            "NORMAL": 17,
            "POSITION": 16,
            "TEXCOORD_0": 18
          },
          "indices": 19,
          "material": 1,
          "mode": 4
        }
      ]
    },
    {
      "name": "V0_TheFirstFlight_0_Cradle_VehiclesGeneric_0",
      "primitives": [
        {
          "attributes": {
            "NORMAL": 21,
            "POSITION": 20,
            "TEXCOORD_0": 22
          },
          "indices": 23,
          "material": 1,
          "mode": 4
        }
      ]
    },
    {
      "name": "V0_TheFirstFlight_0_Rudder_Vehicle_Body_0",
      "primitives": [
        {
          "attributes": {
            "NORMAL": 25,
            "POSITION": 24,
            "TEXCOORD_0": 26
          },
          "indices": 27,
          "material": 0,
          "mode": 4
        }
      ]
    },
    {
      "name": "V0_TheFirstFlight_0_Rudder_VehiclesGeneric_0",
      "primitives": [
        {
          "attributes": {
            "NORMAL": 29,
            "POSITION": 28,
            "TEXCOORD_0": 30
          },
          "indices": 31,
          "material": 1,
          "mode": 4
        }
      ]
    },
    {
      "name": "V0_TheFirstFlight_0_Propeller_L_VehiclesGeneric_0",
      "primitives": [
        {
          "attributes": {
            "NORMAL": 33,
            "POSITION": 32,
            "TEXCOORD_0": 34
          },
          "indices": 35,
          "material": 1,
          "mode": 4
        }
      ]
    },
    {
      "name": "V0_TheFirstFlight_0_PropellerChain_L_VehiclesGeneric_0",
      "primitives": [
        {
          "attributes": {
            "NORMAL": 37,
            "POSITION": 36,
            "TEXCOORD_0": 38
          },
          "indices": 39,
          "material": 1,
          "mode": 4
        }
      ]
    },
    {
      "name": "V0_TheFirstFlight_0_PropellerChain_R_VehiclesGeneric_0",
      "primitives": [
        {
          "attributes": {
            "NORMAL": 41,
            "POSITION": 40,
            "TEXCOORD_0": 42
          },
          "indices": 43,
          "material": 1,
          "mode": 4
        }
      ]
    },
    {
      "name": "V0_TheFirstFlight_0_EngineGear_VehiclesGeneric_0",
      "primitives": [
        {
          "attributes": {
            "NORMAL": 45,
            "POSITION": 44,
            "TEXCOORD_0": 46
          },
          "indices": 47,
          "material": 1,
          "mode": 4
        }
      ]
    },
    {
      "name": "V0_TheFirstFlight_0_Engine_VehiclesGeneric_0",
      "primitives": [
        {
          "attributes": {
            "NORMAL": 49,
            "POSITION": 48,
            "TEXCOORD_0": 50
          },
          "indices": 51,
          "material": 1,
          "mode": 4
        }
      ]
    },
    {
      "name": "V0_TheFirstFlight_0_CylinderGear_VehiclesGeneric_0",
      "primitives": [
        {
          "attributes": {
            "NORMAL": 53,
            "POSITION": 52,
            "TEXCOORD_0": 54
          },
          "indices": 55,
          "material": 1,
          "mode": 4
        }
      ]
    },
    {
      "name": "V0_TheFirstFlight_0_GeneratorGear_VehiclesGeneric_0",
      "primitives": [
        {
          "attributes": {
            "NORMAL": 57,
            "POSITION": 56,
            "TEXCOORD_0": 58
          },
          "indices": 59,
          "material": 1,
          "mode": 4
        }
      ]
    },
    {
      "name": "V0_TheFirstFlight_0_Generator_VehiclesGeneric_0",
      "primitives": [
        {
          "attributes": {
            "NORMAL": 61,
            "POSITION": 60,
            "TEXCOORD_0": 62
          },
          "indices": 63,
          "material": 1,
          "mode": 4
        }
      ]
    },
    {
      "name": "V0_TheFirstFlight_0_Instruments_VehiclesGeneric_0",
      "primitives": [
        {
          "attributes": {
            "NORMAL": 65,
            "POSITION": 64,
            "TEXCOORD_0": 66
          },
          "indices": 67,
          "material": 1,
          "mode": 4
        }
      ]
    },
    {
      "name": "V0_TheFirstFlight_0_Propeller_R_VehiclesGeneric_0",
      "primitives": [
        {
          "attributes": {
            "NORMAL": 69,
            "POSITION": 68,
            "TEXCOORD_0": 70
          },
          "indices": 71,
          "material": 1,
          "mode": 4
        }
      ]
    },
    {
      "name": "V0_TheFirstFlight_0_RailTrack_VehiclesGeneric_0",
      "primitives": [
        {
          "attributes": {
            "NORMAL": 73,
            "POSITION": 72,
            "TEXCOORD_0": 74
          },
          "indices": 75,
          "material": 1,
          "mode": 4
        }
      ]
    }
  ],
  "nodes": [
    {
      "children": [
        1
      ],
      "matrix": [
        1.0,
        0.0,
        0.0,
        0.0,
        0.0,
        2.220446049250313e-16,
        -1.0,
        0.0,
        0.0,
        1.0,
        2.220446049250313e-16,
        0.0,
        0.0,
        0.0,
        0.0,
        1.0
      ],
      "name": "Sketchfab_model"
    },
    {
      "children": [
        2
      ],
      "matrix": [
        0.009999999776482582,
        0.0,
        0.0,
        0.0,
        0.0,
        0.0,
        0.009999999776482582,
        0.0,
        0.0,
        -0.009999999776482582,
        0.0,
        0.0,
        0.0,
        0.0,
        0.0,
        1.0
      ],
      "name": "0_Sketchfab_DemoScene.fbx"
    },
    {
      "children": [
        3,
        6,
        9,
        11,
        13,
        16,
        18,
        20,
        22,
        24,
        26,
        28,
        30,
        32,
        34,
        36
      ],
      "name": "RootNode"
    },
    {
      "children": [
        4,
        5
      ],
      "name": "V0_TheFirstFlight_0_Body"
    },
    {
      "mesh": 0,
      "name": "V0_TheFirstFlight_0_Body_Vehicle_Body_0"
    },
    {
      "mesh": 1,
      "name": "V0_TheFirstFlight_0_Body_VehiclesGeneric_0"
    },
    {
      "children": [
        7,
        8
      ],
      "matrix": [
        1.0,
        0.0,
        0.0,
        0.0,
        0.0,
        1.0,
        0.0,
        0.0,
        0.0,
        0.0,
        1.0,
        0.0,
        0.0,
        -16.337221145629883,
        370.62261962890625,
        1.0
      ],
      "name": "V0_TheFirstFlight_0_Elevator"
    },
    {
      "mesh": 2,
      "name": "V0_TheFirstFlight_0_Elevator_Vehicle_Body_0"
    },
    {
      "mesh": 3,
      "name": "V0_TheFirstFlight_0_Elevator_VehiclesGeneric_0"
    },
    {
      "children": [
        10
      ],
      "matrix": [
        1.0,
        0.0,
        0.0,
        0.0,
        0.0,
        1.0,
        0.0,
        0.0,
        0.0,
        0.0,
        1.0,
        0.0,
        0.0,
        -79.71537017822266,
        112.31759643554688,
        1.0
      ],
      "name": "V0_TheFirstFlight_0_ElevatorGear"
    },
    {
      "mesh": 4,
      "name": "V0_TheFirstFlight_0_ElevatorGear_VehiclesGeneric_0"
    },
    {
      "children": [
        12
      ],
      "matrix": [
        1.0,
        0.0,
        0.0,
        0.0,
        0.0,
        1.0,
        0.0,
        0.0,
        0.0,
        0.0,
        1.0,
        0.0,
        59.91538619995117,
        -73.27798461914063,
        27.853923797607422,
        1.0
      ],
      "name": "V0_TheFirstFlight_0_Cradle"
    },
    {
      "mesh": 5,
      "name": "V0_TheFirstFlight_0_Cradle_VehiclesGeneric_0"
    },
    {
      "children": [
        14,
        15
      ],
      "matrix": [
        1.0,
        0.0,
        0.0,
        0.0,
        0.0,
        1.0,
        0.0,
        0.0,
        0.0,
        0.0,
        1.0,
        0.0,
        -3.367582394275814e-05,
        2.2985458374023438,
        -385.2065124511719,
        1.0
      ],
      "name": "V0_TheFirstFlight_0_Rudder"
    },
    {
      "mesh": 6,
      "name": "V0_TheFirstFlight_0_Rudder_Vehicle_Body_0"
    },
    {
      "mesh": 7,
      "name": "V0_TheFirstFlight_0_Rudder_VehiclesGeneric_0"
    },
    {
      "children": [
        17
      ],
      "matrix": [
        1.0,
        0.0,
        0.0,
        0.0,
        0.0,
        1.0,
        0.0,
        0.0,
        0.0,
        0.0,
        1.0,
        0.0,
        204.84170532226563,
        43.68084716796875,
        -28.310710906982422,
        1.0
      ],
      "name": "V0_TheFirstFlight_0_Propeller_L"
    },
    {
      "mesh": 8,
      "name": "V0_TheFirstFlight_0_Propeller_L_VehiclesGeneric_0"
    },
    {
      "children": [
        19
      ],
      "matrix": [
        1.0,
        0.0,
        0.0,
        0.0,
        0.0,
        1.0,
        0.0,
        0.0,
        0.0,
        0.0,
        1.0,
        0.0,
        204.8417510986328,
        43.68084716796875,
        -28.310710906982422,
        1.0
      ],
      "name": "V0_TheFirstFlight_0_PropellerChain_L"
    },
    {
      "mesh": 9,
      "name": "V0_TheFirstFlight_0_PropellerChain_L_VehiclesGeneric_0"
    },
    {
      "children": [
        21
      ],
      "matrix": [
        1.0,
        0.0,
        0.0,
        0.0,
        0.0,
        1.0,
        0.0,
        0.0,
        0.0,
        0.0,
        1.0,
        0.0,
        -204.8417510986328,
        43.68084716796875,
        -32.3106689453125,
        1.0
      ],
      "name": "V0_TheFirstFlight_0_PropellerChain_R"
    },
    {
      "mesh": 10,
      "name": "V0_TheFirstFlight_0_PropellerChain_R_VehiclesGeneric_0"
    },
    {
      "children": [
        23
      ],
      "matrix": [
        1.0,
        0.0,
        0.0,
        0.0,
        0.0,
        1.0,
        0.0,
        0.0,
        0.0,
        0.0,
        1.0,
        0.0,
        -75.80807495117188,
        -50.391578674316406,
        -20.310646057128906,
        1.0
      ],
      "name": "V0_TheFirstFlight_0_EngineGear"
    },
    {
      "mesh": 11,
      "name": "V0_TheFirstFlight_0_EngineGear_VehiclesGeneric_0"
    },
    {
      "children": [
        25
      ],
      "matrix": [
        1.0,
        0.0,
        0.0,
        0.0,
        0.0,
        1.0,
        0.0,
        0.0,
        0.0,
        0.0,
        1.0,
        0.0,
        -75.80807495117188,
        -50.391578674316406,
        -18.31064796447754,
        1.0
      ],
      "name": "V0_TheFirstFlight_0_Engine"
    },
    {
      "mesh": 12,
      "name": "V0_TheFirstFlight_0_Engine_VehiclesGeneric_0"
    },
    {
      "children": [
        27
      ],
      "matrix": [
        1.0,
        0.0,
        0.0,
        0.0,
        0.0,
        1.0,
        0.0,
        0.0,
        0.0,
        0.0,
        1.0,
        0.0,
        -37.40807342529297,
        -61.39160919189453,
        44.78927993774414,
        1.0
      ],
      "name": "V0_TheFirstFlight_0_CylinderGear"
    },
    {
      "mesh": 13,
      "name": "V0_TheFirstFlight_0_CylinderGear_VehiclesGeneric_0"
    },
    {
      "children": [
        29
      ],
      "matrix": [
        1.0,
        0.0,
        0.0,
        0.0,
        0.0,
        1.0,
        0.0,
        0.0,
        0.0,
        0.0,
        1.0,
        0.0,
        -50.8984489440918,
        -68.1702880859375,
        -27.91063690185547,
        1.0
      ],
      "name": "V0_TheFirstFlight_0_GeneratorGear"
    },
    {
      "mesh": 14,
      "name": "V0_TheFirstFlight_0_GeneratorGear_VehiclesGeneric_0"
    },
    {
      "children": [
        31
      ],
      "matrix": [
        1.0,
        0.0,
        0.0,
        0.0,
        0.0,
        1.0,
        0.0,
        0.0,
        0.0,
        0.0,
        1.0,
        0.0,
        -50.89846420288086,
        -67.31690979003906,
        -36.31064987182617,
        1.0
      ],
      "name": "V0_TheFirstFlight_0_Generator"
    },
    {
      "mesh": 15,
      "name": "V0_TheFirstFlight_0_Generator_VehiclesGeneric_0"
    },
    {
      "children": [
        33
      ],
      "matrix": [
        1.0,
        0.0,
        0.0,
        0.0,
        0.0,
        1.0,
        0.0,
        0.0,
        0.0,
        0.0,
        1.0,
        0.0,
        3.353487253189087,
        -37.09149169921875,
        85.0,
        1.0
      ],
      "name": "V0_TheFirstFlight_0_Instruments"
    },
    {
      "mesh": 16,
      "name": "V0_TheFirstFlight_0_Instruments_VehiclesGeneric_0"
    },
    {
      "children": [
        35
      ],
      "matrix": [
        1.0,
        0.0,
        0.0,
        0.0,
        0.0,
        1.0,
        0.0,
        0.0,
        0.0,
        0.0,
        1.0,
        0.0,
        -204.8419952392578,
        43.68084716796875,
        -28.310710906982422,
        1.0
      ],
      "name": "V0_TheFirstFlight_0_Propeller_R"
    },
    {
      "mesh": 17,
      "name": "V0_TheFirstFlight_0_Propeller_R_VehiclesGeneric_0"
    },
    {
      "children": [
        37
      ],
      "matrix": [
        1.0,
        0.0,
        0.0,
        0.0,
        0.0,
        1.0,
        0.0,
        0.0,
        0.0,
        0.0,
        1.0,
        0.0,
        0.0,
        -173.25149536132813,
        480.0000305175781,
        1.0
      ],
      "name": "V0_TheFirstFlight_0_RailTrack"
    },
    {
      "mesh": 18,
      "name": "V0_TheFirstFlight_0_RailTrack_VehiclesGeneric_0"
    }
  ],
  "samplers": [
    {
      "magFilter": 9729,
      "minFilter": 9987,
      "wrapS": 10497,
      "wrapT": 10497
    }
  ],
  "scene": 0,
  "scenes": [
    {
      "name": "Sketchfab_Scene",
      "nodes": [
        0
      ]
    }
  ],
  "textures": [
    {
      "sampler": 0,
      "source": 0
    }
  ]
}
