{
  "accessors": [
    {
      "bufferView": 2,
      "componentType": 5126,
      "count": 6485,
      "max": [
        3.3982491493225098,
        20.433368682861328,
        1.9377795457839966
      ],
      "min": [
        -3.3982491493225098,
        -1.808971881866455,
        -3.12202787399292
      ],
      "type": "VEC3"
    },
    {
      "bufferView": 2,
      "byteOffset": 77820,
      "componentType": 5126,
      "count": 6485,
      "max": [
        1.0,
        1.0,
        0.9999980926513672
      ],
      "min": [
        -1.0,
        -0.9999392628669739,
        -1.0
      ],
      "type": "VEC3"
    },
    {
      "bufferView": 1,
      "componentType": 5126,
      "count": 6485,
      "max": [
        15.30965805053711,
        52.433876037597656
      ],
      "min": [
        -15.225050926208496,
        -51.43388366699219
      ],
      "type": "VEC2"
    },
    {
      "bufferView": 1,
      "byteOffset": 51880,
      "componentType": 5126,
      "count": 6485,
      "max": [
        0.7500001192092896,
        0.8750001192092896
      ],
      "min": [
        0.25,
        0.375
      ],
      "type": "VEC2"
    },
    {
      "bufferView": 0,
      "componentType": 5125,
      "count": 23928,
      "type": "SCALAR"
    },
    {
      "bufferView": 2,
      "byteOffset": 155640,
      "componentType": 5126,
      "count": 35,
      "max": [
        16.61924934387207,
        1.1677820682525635,
        0.691243052482605
      ],
      "min": [
        16.4831600189209,
        -0.5292542576789856,
        -0.7486020922660828
      ],
      "type": "VEC3"
    },
    {
      "bufferView": 2,
      "byteOffset": 156060,
      "componentType": 5126,
      "count": 35,
      "max": [
        0.9999622702598572,
        0.06578473746776581,
        0.27869051694869995
      ],
      "min": [
        0.9592248797416687,
        -9.36146443564212e-06,
        -0.2677314579486847
      ],
      "type": "VEC3"
    },
    {
      "bufferView": 1,
      "byteOffset": 103760,
      "componentType": 5126,
      "count": 35,
      "max": [
        0.6250000596046448,
        0.7500001788139343
      ],
      "min": [
        0.375,
        0.5000000596046448
      ],
      "type": "VEC2"
    },
    {
      "bufferView": 0,
      "byteOffset": 95712,
      "componentType": 5125,
      "count": 132,
      "type": "SCALAR"
    },
    {
      "bufferView": 2,
      "byteOffset": 156480,
      "componentType": 5126,
      "count": 1241,
      "max": [
        16.61924934387207,
        2.3302316665649414,
        0.7218780517578125
      ],
      "min": [
        -16.61924934387207,
        -1.252646565437317,
        -4.515187740325928
      ],
      "type": "VEC3"
    },
    {
      "bufferView": 2,
      "byteOffset": 171372,
      "componentType": 5126,
      "count": 1241,
      "max": [
        1.0,
        0.9916794300079346,
        0.9998766183853149
      ],
      "min": [
        -1.0,
        -0.9998513460159302,
        -1.0
      ],
      "type": "VEC3"
    },
    {
      "bufferView": 1,
      "byteOffset": 104040,
      "componentType": 5126,
      "count": 1241,
      "max": [
        6.482148170471191,
        1.1084200143814087
      ],
      "min": [
        -5.380722522735596,
        -0.1955592930316925
      ],
      "type": "VEC2"
    },
    {
      "bufferView": 1,
      "byteOffset": 113968,
      "componentType": 5126,
      "count": 1241,
      "max": [
        6.482148170471191,
        1.1084200143814087
      ],
      "min": [
        -5.380722522735596,
        -0.1955592930316925
      ],
      "type": "VEC2"
    },
    {
      "bufferView": 1,
      "byteOffset": 123896,
      "componentType": 5126,
      "count": 1241,
      "max": [
        6.482148170471191,
        1.1084200143814087
      ],
      "min": [
        -5.380722522735596,
        -0.1955592930316925
      ],
      "type": "VEC2"
    },
    {
      "bufferView": 0,
      "byteOffset": 96240,
      "componentType": 5125,
      "count": 4656,
      "type": "SCALAR"
    },
    {
      "bufferView": 2,
      "byteOffset": 186264,
      "componentType": 5126,
      "count": 35,
      "max": [
        -16.4831600189209,
        1.1677820682525635,
        0.691243052482605
      ],
      "min": [
        -16.61924934387207,
        -0.5292542576789856,
        -0.7486020922660828
      ],
      "type": "VEC3"
    },
    {
      "bufferView": 2,
      "byteOffset": 186684,
      "componentType": 5126,
      "count": 35,
      "max": [
        -0.9592248797416687,
        0.0657847449183464,
        0.27869048714637756
      ],
      "min": [
        -0.999962329864502,
        -4.939916379953502e-06,
        -0.26772913336753845
      ],
      "type": "VEC3"
    },
    {
      "bufferView": 1,
      "byteOffset": 133824,
      "componentType": 5126,
      "count": 35,
      "max": [
        0.6250000596046448,
        0.7500001788139343
      ],
      "min": [
        0.375,
        0.5000000596046448
      ],
      "type": "VEC2"
    },
    {
      "bufferView": 0,
      "byteOffset": 114864,
      "componentType": 5125,
      "count": 132,
      "type": "SCALAR"
    },
    {
      "bufferView": 2,
      "byteOffset": 187104,
      "componentType": 5126,
      "count": 102,
      "max": [
        3.6935038566589355,
        0.44139474630355835,
        0.6474668383598328
      ],
      "min": [
        -3.6935038566589355,
        -0.35834529995918274,
        -0.6475354433059692
      ],
      "type": "VEC3"
    },
    {
      "bufferView": 2,
      "byteOffset": 188328,
      "componentType": 5126,
      "count": 102,
      "max": [
        1.0,
        0.9407081604003906,
        0.7121910452842712
      ],
      "min": [
        -1.0,
        -0.9882322549819946,
        -0.7100952863693237
      ],
      "type": "VEC3"
    },
    {
      "bufferView": 1,
      "byteOffset": 134104,
      "componentType": 5126,
      "count": 102,
      "max": [
        0.9001477956771851,
        1.945921778678894
      ],
      "min": [
        -0.4374895393848419,
        -0.9459221363067627
      ],
      "type": "VEC2"
    },
    {
      "bufferView": 0,
      "byteOffset": 115392,
      "componentType": 5125,
      "count": 288,
      "type": "SCALAR"
    },
    {
      "bufferView": 2,
      "byteOffset": 189552,
      "componentType": 5126,
      "count": 104,
      "max": [
        7.560837745666504,
        1.994002342224121,
        0.7218780517578125
      ],
      "min": [
        -7.560837745666504,
        1.116819977760315,
        -0.5731242299079895
      ],
      "type": "VEC3"
    },
    {
      "bufferView": 2,
      "byteOffset": 190800,
      "componentType": 5126,
      "count": 104,
      "max": [
        1.0,
        0.9407853484153748,
        0.7119731903076172
      ],
      "min": [
        -1.0,
        -0.9882462024688721,
        -0.7098769545555115
      ],
      "type": "VEC3"
    },
    {
      "bufferView": 1,
      "byteOffset": 134920,
      "componentType": 5126,
      "count": 104,
      "max": [
        0.6841756701469421,
        2.443502426147461
      ],
      "min": [
        -0.40411707758903503,
        -1.4435021877288818
      ],
      "type": "VEC2"
    },
    {
      "bufferView": 0,
      "byteOffset": 116544,
      "componentType": 5125,
      "count": 288,
      "type": "SCALAR"
    },
    {
      "bufferView": 2,
      "byteOffset": 192048,
      "componentType": 5126,
      "count": 104,
      "max": [
        11.871679306030273,
        1.7372162342071533,
        0.7218780517578125
      ],
      "min": [
        -11.871679306030273,
        0.8311416506767273,
        -0.5731242299079895
      ],
      "type": "VEC3"
    },
    {
      "bufferView": 2,
      "byteOffset": 193296,
      "componentType": 5126,
      "count": 104,
      "max": [
        1.0,
        0.9408766627311707,
        0.7116826176643372
      ],
      "min": [
        -1.0,
        -0.9882627129554749,
        -0.7095853090286255
      ],
      "type": "VEC3"
    },
    {
      "bufferView": 1,
      "byteOffset": 135752,
      "componentType": 5126,
      "count": 104,
      "max": [
        0.6961570382118225,
        2.0851128101348877
      ],
      "min": [
        -0.36222806572914124,
        -1.0851125717163086
      ],
      "type": "VEC2"
    },
    {
      "bufferView": 0,
      "byteOffset": 117696,
      "componentType": 5125,
      "count": 288,
      "type": "SCALAR"
    },
    {
      "bufferView": 2,
      "byteOffset": 194544,
      "componentType": 5126,
      "count": 106,
      "max": [
        14.465516090393066,
        1.4509819746017456,
        0.7218780517578125
      ],
      "min": [
        -14.465516090393066,
        0.6592487692832947,
        -0.5731242299079895
      ],
      "type": "VEC3"
    },
    {
      "bufferView": 2,
      "byteOffset": 195816,
      "componentType": 5126,
      "count": 106,
      "max": [
        1.0,
        0.9409422874450684,
        0.7113993167877197
      ],
      "min": [
        -1.0,
        -0.9882745146751404,
        -0.7093007564544678
      ],
      "type": "VEC3"
    },
    {
      "bufferView": 1,
      "byteOffset": 136584,
      "componentType": 5126,
      "count": 106,
      "max": [
        0.9140085577964783,
        2.491823434829712
      ],
      "min": [
        -0.5472054481506348,
        -1.491823434829712
      ],
      "type": "VEC2"
    },
    {
      "bufferView": 0,
      "byteOffset": 118848,
      "componentType": 5125,
      "count": 288,
      "type": "SCALAR"
    },
    {
      "bufferView": 2,
      "byteOffset": 197088,
      "componentType": 5126,
      "count": 22,
      "max": [
        4.7596306800842285,
        1.0251274108886719,
        0.2933596670627594
      ],
      "min": [
        3.7503461837768555,
        0.6688419580459595,
        -0.21178923547267914
      ],
      "type": "VEC3"
    },
    {
      "bufferView": 2,
      "byteOffset": 197352,
      "componentType": 5126,
      "count": 22,
      "max": [
        0.20385311543941498,
        0.9952970743179321,
        0.7939344048500061
      ],
      "min": [
        -0.009518749080598354,
        0.01303134672343731,
        -0.9789148569107056
      ],
      "type": "VEC3"
    },
    {
      "bufferView": 1,
      "byteOffset": 137432,
      "componentType": 5126,
      "count": 22,
      "max": [
        0.6250000596046448,
        0.5778244733810425
      ],
      "min": [
        0.3487735688686371,
        0.4767270088195801
      ],
      "type": "VEC2"
    },
    {
      "bufferView": 1,
      "byteOffset": 137608,
      "componentType": 5126,
      "count": 22,
      "max": [
        0.6250000596046448,
        0.5603974461555481
      ],
      "min": [
        0.36649373173713684,
        0.49149373173713684
      ],
      "type": "VEC2"
    },
    {
      "bufferView": 0,
      "byteOffset": 120000,
      "componentType": 5125,
      "count": 48,
      "type": "SCALAR"
    },
    {
      "bufferView": 2,
      "byteOffset": 197616,
      "componentType": 5126,
      "count": 111,
      "max": [
        4.7596306800842285,
        1.0251274108886719,
        0.9809353351593018
      ],
      "min": [
        0.013333333656191826,
        -1.117995023727417,
        -1.0000001192092896
      ],
      "type": "VEC3"
    },
    {
      "bufferView": 2,
      "byteOffset": 198948,
      "componentType": 5126,
      "count": 111,
      "max": [
        1.0,
        0.9981862306594849,
        0.9891714453697205
      ],
      "min": [
        -0.013845428824424744,
        -0.9678995609283447,
        -0.9789148569107056
      ],
      "type": "VEC3"
    },
    {
      "bufferView": 1,
      "byteOffset": 137784,
      "componentType": 5126,
      "count": 111,
      "max": [
        0.7483333945274353,
        0.8733334541320801
      ],
      "min": [
        0.2516666650772095,
        0.37666672468185425
      ],
      "type": "VEC2"
    },
    {
      "bufferView": 1,
      "byteOffset": 138672,
      "componentType": 5126,
      "count": 111,
      "max": [
        3.6471846103668213,
        2.097672700881958
      ],
      "min": [
        -2.5845577716827393,
        -1.2895029783248901
      ],
      "type": "VEC2"
    },
    {
      "bufferView": 1,
      "byteOffset": 139560,
      "componentType": 5126,
      "count": 111,
      "max": [
        0.7483333945274353,
        0.8733334541320801
      ],
      "min": [
        0.2516666650772095,
        0.37666672468185425
      ],
      "type": "VEC2"
    },
    {
      "bufferView": 1,
      "byteOffset": 140448,
      "componentType": 5126,
      "count": 111,
      "max": [
        0.7483333945274353,
        0.8733334541320801
      ],
      "min": [
        0.2516666650772095,
        0.37666672468185425
      ],
      "type": "VEC2"
    },
    {
      "bufferView": 0,
      "byteOffset": 120192,
      "componentType": 5125,
      "count": 330,
      "type": "SCALAR"
    },
    {
      "bufferView": 2,
      "byteOffset": 200280,
      "componentType": 5126,
      "count": 71,
      "max": [
        4.7596306800842285,
        1.0125664472579956,
        0.9809353351593018
      ],
      "min": [
        0.013333333656191826,
        -1.117995023727417,
        -0.9807751178741455
      ],
      "type": "VEC3"
    },
    {
      "bufferView": 2,
      "byteOffset": 201132,
      "componentType": 5126,
      "count": 71,
      "max": [
        1.0,
        0.9315804243087769,
        0.9827744364738464
      ],
      "min": [
        -0.01708310656249523,
        -0.9678851962089539,
        -0.9756697416305542
      ],
      "type": "VEC3"
    },
    {
      "bufferView": 1,
      "byteOffset": 141336,
      "componentType": 5126,
      "count": 71,
      "max": [
        0.7483333945274353,
        0.8733334541320801
      ],
      "min": [
        0.2516666650772095,
        0.37666672468185425
      ],
      "type": "VEC2"
    },
    {
      "bufferView": 1,
      "byteOffset": 141904,
      "componentType": 5126,
      "count": 71,
      "max": [
        0.7483333945274353,
        0.8733334541320801
      ],
      "min": [
        0.2516666650772095,
        0.37666672468185425
      ],
      "type": "VEC2"
    },
    {
      "bufferView": 1,
      "byteOffset": 142472,
      "componentType": 5126,
      "count": 71,
      "max": [
        0.7483333945274353,
        0.8733334541320801
      ],
      "min": [
        0.2516666650772095,
        0.37666672468185425
      ],
      "type": "VEC2"
    },
    {
      "bufferView": 0,
      "byteOffset": 121512,
      "componentType": 5125,
      "count": 180,
      "type": "SCALAR"
    },
    {
      "bufferView": 2,
      "byteOffset": 201984,
      "componentType": 5126,
      "count": 70,
      "max": [
        1.0,
        1.0,
        1.0
      ],
      "min": [
        -1.0,
        -1.0,
        -1.0
      ],
      "type": "VEC3"
    },
    {
      "bufferView": 2,
      "byteOffset": 202824,
      "componentType": 5126,
      "count": 70,
      "max": [
        1.0,
        1.0,
        1.0
      ],
      "min": [
        -1.0,
        -1.0,
        -1.0
      ],
      "type": "VEC3"
    },
    {
      "bufferView": 1,
      "byteOffset": 143040,
      "componentType": 5126,
      "count": 70,
      "max": [
        1.0,
        1.0
      ],
      "min": [
        0.0,
        0.01000000536441803
      ],
      "type": "VEC2"
    },
    {
      "bufferView": 1,
      "byteOffset": 143600,
      "componentType": 5126,
      "count": 70,
      "max": [
        0.9901227951049805,
        0.9998162388801575
      ],
      "min": [
        0.00018377725791651756,
        0.0001837925228755921
      ],
      "type": "VEC2"
    },
    {
      "bufferView": 1,
      "byteOffset": 144160,
      "componentType": 5126,
      "count": 70,
      "max": [
        1.0,
        1.0
      ],
      "min": [
        0.0,
        0.01000000536441803
      ],
      "type": "VEC2"
    },
    {
      "bufferView": 0,
      "byteOffset": 122232,
      "componentType": 5125,
      "count": 180,
      "type": "SCALAR"
    },
    {
      "bufferView": 2,
      "byteOffset": 203664,
      "componentType": 5126,
      "count": 66,
      "max": [
        1.0,
        1.895493984222412,
        1.0000001192092896
      ],
      "min": [
        -1.0,
        -0.10450606793165207,
        -0.9999998807907104
      ],
      "type": "VEC3"
    },
    {
      "bufferView": 2,
      "byteOffset": 204456,
      "componentType": 5126,
      "count": 66,
      "max": [
        1.0,
        1.0,
        1.0
      ],
      "min": [
        -1.0,
        -1.0,
        -1.0
      ],
      "type": "VEC3"
    },
    {
      "bufferView": 1,
      "byteOffset": 144720,
      "componentType": 5126,
      "count": 66,
      "max": [
        1.0,
        1.0
      ],
      "min": [
        0.0,
        0.01000000536441803
      ],
      "type": "VEC2"
    },
    {
      "bufferView": 1,
      "byteOffset": 145248,
      "componentType": 5126,
      "count": 66,
      "max": [
        1.0,
        1.0
      ],
      "min": [
        0.0,
        0.01000000536441803
      ],
      "type": "VEC2"
    },
    {
      "bufferView": 0,
      "byteOffset": 122952,
      "componentType": 5125,
      "count": 180,
      "type": "SCALAR"
    },
    {
      "bufferView": 2,
      "byteOffset": 205248,
      "componentType": 5126,
      "count": 66,
      "max": [
        1.0,
        1.895493984222412,
        1.0000001192092896
      ],
      "min": [
        -1.0,
        -0.10450606793165207,
        -0.9999998807907104
      ],
      "type": "VEC3"
    },
    {
      "bufferView": 2,
      "byteOffset": 206040,
      "componentType": 5126,
      "count": 66,
      "max": [
        1.0,
        1.0,
        1.0
      ],
      "min": [
        -1.0,
        -1.0,
        -1.0
      ],
      "type": "VEC3"
    },
    {
      "bufferView": 1,
      "byteOffset": 145776,
      "componentType": 5126,
      "count": 66,
      "max": [
        1.0,
        1.0
      ],
      "min": [
        0.0,
        0.01000000536441803
      ],
      "type": "VEC2"
    },
    {
      "bufferView": 1,
      "byteOffset": 146304,
      "componentType": 5126,
      "count": 66,
      "max": [
        1.0,
        1.0
      ],
      "min": [
        0.0,
        0.01000000536441803
      ],
      "type": "VEC2"
    },
    {
      "bufferView": 0,
      "byteOffset": 123672,
      "componentType": 5125,
      "count": 180,
      "type": "SCALAR"
    },
    {
      "bufferView": 2,
      "byteOffset": 206832,
      "componentType": 5126,
      "count": 22,
      "max": [
        4.7596306800842285,
        1.0251274108886719,
        0.2933596670627594
      ],
      "min": [
        3.7503461837768555,
        0.6688419580459595,
        -0.21178923547267914
      ],
      "type": "VEC3"
    },
    {
      "bufferView": 2,
      "byteOffset": 207096,
      "componentType": 5126,
      "count": 22,
      "max": [
        0.20385311543941498,
        0.9952970743179321,
        0.7939344048500061
      ],
      "min": [
        -0.009518749080598354,
        0.01303134672343731,
        -0.9789148569107056
      ],
      "type": "VEC3"
    },
    {
      "bufferView": 1,
      "byteOffset": 146832,
      "componentType": 5126,
      "count": 22,
      "max": [
        0.6250000596046448,
        0.5778244733810425
      ],
      "min": [
        0.3487735688686371,
        0.4767270088195801
      ],
      "type": "VEC2"
    },
    {
      "bufferView": 1,
      "byteOffset": 147008,
      "componentType": 5126,
      "count": 22,
      "max": [
        0.6250000596046448,
        0.5603974461555481
      ],
      "min": [
        0.36649373173713684,
        0.49149373173713684
      ],
      "type": "VEC2"
    },
    {
      "bufferView": 0,
      "byteOffset": 124392,
      "componentType": 5125,
      "count": 48,
      "type": "SCALAR"
    },
    {
      "bufferView": 2,
      "byteOffset": 207360,
      "componentType": 5126,
      "count": 111,
      "max": [
        4.7596306800842285,
        1.0251274108886719,
        0.9809353351593018
      ],
      "min": [
        0.013333333656191826,
        -1.117995023727417,
        -1.0000001192092896
      ],
      "type": "VEC3"
    },
    {
      "bufferView": 2,
      "byteOffset": 208692,
      "componentType": 5126,
      "count": 111,
      "max": [
        1.0,
        0.9981862306594849,
        0.9891714453697205
      ],
      "min": [
        -0.013845428824424744,
        -0.9678995609283447,
        -0.9789148569107056
      ],
      "type": "VEC3"
    },
    {
      "bufferView": 1,
      "byteOffset": 147184,
      "componentType": 5126,
      "count": 111,
      "max": [
        0.7483333945274353,
        0.8733334541320801
      ],
      "min": [
        0.2516666650772095,
        0.37666672468185425
      ],
      "type": "VEC2"
    },
    {
      "bufferView": 1,
      "byteOffset": 148072,
      "componentType": 5126,
      "count": 111,
      "max": [
        3.6471846103668213,
        2.097672700881958
      ],
      "min": [
        -2.5845577716827393,
        -1.2895029783248901
      ],
      "type": "VEC2"
    },
    {
      "bufferView": 1,
      "byteOffset": 148960,
      "componentType": 5126,
      "count": 111,
      "max": [
        0.7483333945274353,
        0.8733334541320801
      ],
      "min": [
        0.2516666650772095,
        0.37666672468185425
      ],
      "type": "VEC2"
    },
    {
      "bufferView": 1,
      "byteOffset": 149848,
      "componentType": 5126,
      "count": 111,
      "max": [
        0.7483333945274353,
        0.8733334541320801
      ],
      "min": [
        0.2516666650772095,
        0.37666672468185425
      ],
      "type": "VEC2"
    },
    {
      "bufferView": 0,
      "byteOffset": 124584,
      "componentType": 5125,
      "count": 330,
      "type": "SCALAR"
    },
    {
      "bufferView": 2,
      "byteOffset": 210024,
      "componentType": 5126,
      "count": 589,
      "max": [
        14.25891399383545,
        4.812543869018555,
        2.1866769790649414
      ],
      "min": [
        -13.862881660461426,
        -17.627986907958984,
        -1.232970118522644
      ],
      "type": "VEC3"
    },
    {
      "bufferView": 2,
      "byteOffset": 217092,
      "componentType": 5126,
      "count": 589,
      "max": [
        0.9837634563446045,
        0.813461184501648,
        0.9999991059303284
      ],
      "min": [
        -0.9901421070098877,
        -0.8877959251403809,
        -0.999495804309845
      ],
      "type": "VEC3"
    },
    {
      "bufferView": 1,
      "byteOffset": 150736,
      "componentType": 5126,
      "count": 589,
      "max": [
        12.753310203552246,
        10.23348331451416
      ],
      "min": [
        -11.75330924987793,
        -9.431065559387207
      ],
      "type": "VEC2"
    },
    {
      "bufferView": 0,
      "byteOffset": 125904,
      "componentType": 5125,
      "count": 1872,
      "type": "SCALAR"
    },
    {
      "bufferView": 2,
      "byteOffset": 224160,
      "componentType": 5126,
      "count": 556,
      "max": [
        2.561682939529419,
        15.675952911376953,
        0.35377809405326843
      ],
      "min": [
        -2.561683416366577,
        -15.675963401794434,
        -0.35377731919288635
      ],
      "type": "VEC3"
    },
    {
      "bufferView": 2,
      "byteOffset": 230832,
      "componentType": 5126,
      "count": 556,
      "max": [
        0.8123687505722046,
        0.06637655943632126,
        0.999843955039978
      ],
      "min": [
        -0.8123687505722046,
        -1.0,
        -1.0
      ],
      "type": "VEC3"
    },
    {
      "bufferView": 1,
      "byteOffset": 155448,
      "componentType": 5126,
      "count": 556,
      "max": [
        0.9900001287460327,
        0.7500001192092896
      ],
      "min": [
        0.010000006295740604,
        0.010000006295740604
      ],
      "type": "VEC2"
    },
    {
      "bufferView": 0,
      "byteOffset": 133392,
      "componentType": 5125,
      "count": 912,
      "type": "SCALAR"
    },
    {
      "bufferView": 3,
      "componentType": 5126,
      "count": 4,
      "max": [
        2.5
      ],
      "min": [
        0.0
      ],
      "type": "SCALAR"
    },
    {
      "bufferView": 4,
      "componentType": 5126,
      "count": 4,
      "max": [
        18.40923309326172,
        3.0083415508270264,
        133.30015563964844
      ],
      "min": [
        18.409231185913086,
        3.0083415508270264,
        133.30015563964844
      ],
      "type": "VEC3"
    },
    {
      "bufferView": 3,
      "byteOffset": 16,
      "componentType": 5126,
      "count": 121,
      "max": [
        2.5
      ],
      "min": [
        0.0
      ],
      "type": "SCALAR"
    },
    {
      "bufferView": 5,
      "componentType": 5126,
      "count": 121,
      "max": [
        0.46768659353256226,
        0.49587857723236084,
        0.7071062326431274,
        0.7071068286895752
      ],
      "min": [
        -0.7071067690849304,
        -0.7071061730384827,
        -0.4958786070346832,
        -0.46768665313720703
      ],
      "type": "VEC4"
    },
    {
      "bufferView": 3,
      "byteOffset": 500,
      "componentType": 5126,
      "count": 4726,
      "max": [
        99.95833587646484
      ],
      "min": [
        0.0
      ],
      "type": "SCALAR"
    },
    {
      "bufferView": 5,
      "byteOffset": 1936,
      "componentType": 5126,
      "count": 4726,
      "max": [
        0.7071244716644287,
        0.70711350440979,
        0.7071080207824707,
        0.7070897221565247
      ],
      "min": [
        -0.31149330735206604,
        -0.7071061730384827,
        -0.7071061730384827,
        -0.31490400433540344
      ],
      "type": "VEC4"
    }
  ],
  "animations": [
    {
      "channels": [
        {
          "sampler": 0,
          "target": {
            "node": 32,
            "path": "scale"
          }
        },
        {
          "sampler": 1,
          "target": {
            "node": 32,
            "path": "rotation"
          }
        }
      ],
      "name": "Cube.009|Cube.009Action",
      "samplers": [
        {
          "input": 89,
          "interpolation": "LINEAR",
          "output": 90
        },
        {
          "input": 91,
          "interpolation": "LINEAR",
          "output": 92
        }
      ]
    },
    {
      "channels": [
        {
          "sampler": 0,
          "target": {
            "node": 32,
            "path": "rotation"
          }
        }
      ],
      "name": "Cube.009|Roundcube.001Action",
      "samplers": [
        {
          "input": 93,
          "interpolation": "LINEAR",
          "output": 94
        }
      ]
    }
  ],
  "asset": {
    "extras": {
      "author": "The Aesthetic Modeler (https://sketchfab.com/racingrevved)",
      "license": "CC-BY-4.0 (http://creativecommons.org/licenses/by/4.0/)",
      "source": "https://sketchfab.com/3d-models/mq-9-reaper-drone-game-ready-military-asset-a02057e7401a4f4ea130cb75cc73d8cb",
      "title": "MQ-9 Reaper Drone – Game Ready Military Asset"
    },
    "generator": "Sketchfab-16.72.0",
    "version": "2.0"
  },
  "bufferViews": [
    {
      "buffer": 0,
      "byteLength": 137040,
      "name": "floatBufferViews",
      "target": 34963
    },
    {
      "buffer": 0,
      "byteLength": 159896,
      "byteOffset": 137040,
      "byteStride": 8,
      "name": "floatBufferViews",
      "target": 34962
    },
    {
      "buffer": 0,
      "byteLength": 237504,
      "byteOffset": 296936,
      "byteStride": 12,
      "name": "floatBufferViews",
      "target": 34962
    },
    {
      "buffer": 0,
      "byteLength": 19404,
      "byteOffset": 534440,
      "name": "floatBufferViews"
    },
    {
      "buffer": 0,
      "byteLength": 48,
      "byteOffset": 553844,
      "byteStride": 12,
      "name": "floatBufferViews"
    },
    {
      "buffer": 0,
      "byteLength": 77552,
      "byteOffset": 553892,
      "byteStride": 16,
      "name": "floatBufferViews"
    }
  ],
  "buffers": [
    {
      "byteLength": 631444,
      "uri": "scene.bin"
    }
  ],
  "materials": [
    {
      "doubleSided": true,
      "name": "Carbon_Fibre.001",
      "pbrMetallicRoughness": {
        "baseColorFactor": [
          0.8,
          0.8,
          0.8,
          1.0
        ],
        "metallicFactor": 0.0,
        "roughnessFactor": 0.8211145618000169
      }
    },
    {
      "doubleSided": true,
      "name": "material",
      "pbrMetallicRoughness": {
        "baseColorFactor": [
          0.8,
          0.8,
          0.8,
          1.0
        ],
        "metallicFactor": 0.0,
        "roughnessFactor": 0.8040408205773457
      }
    },
    {
      "doubleSided": true,
      "name": "SciFi_Structural_Panelling.002",
      "pbrMetallicRoughness": {
        "baseColorFactor": [
          0.8,
          0.8,
          0.8,
          1.0
        ],
        "metallicFactor": 0.0,
        "roughnessFactor": 0.8211145618000169
      }
    },
    {
      "doubleSided": true,
      "name": "Material.002",
      "pbrMetallicRoughness": {
        "baseColorFactor": [
          0.8,
          0.8,
          0.8,
          1.0
        ],
        "metallicFactor": 0.0,
        "roughnessFactor": 0.8040408205773457
      }
    },
    {
      "doubleSided": true,
      "name": "white",
      "pbrMetallicRoughness": {
        "baseColorFactor": [
          0.8,
          0.8,
          0.8,
          1.0
        ],
        "metallicFactor": 0.0,
        "roughnessFactor": 0.8040408205773457
      }
    },
    {
      "doubleSided": true,
      "name": "Tyre",
      "pbrMetallicRoughness": {
        "baseColorFactor": [
          0.0,
          0.0,
          0.0,
          1.0
        ],
        "metallicFactor": 0.0
      }
    },
    {
      "doubleSided": true,
      "name": "Carbon_Fibre",
      "pbrMetallicRoughness": {
        "baseColorFactor": [
          0.8,
          0.8,
          0.8,
          1.0
        ],
        "metallicFactor": 0.0,
        "roughnessFactor": 0.8040408205773457
      }
    }
  ],
  "meshes": [
    {
      "name": "Cube_Carbon Fibre.001_0",
      "primitives": [
        {
          "attributes": {
            "NORMAL": 1,
            "POSITION": 0,
            "TEXCOORD_0": 2,
            "TEXCOORD_1": 3
          },
          "indices": 4,
          "material": 0,
          "mode": 4
        }
      ]
    },
    {
      "name": "Cube.001_red_0",
      "primitives": [
        {
          "attributes": {
            "NORMAL": 6,
            "POSITION": 5,
            "TEXCOORD_0": 7
          },
          "indices": 8,
          "material": 1,
          "mode": 4
        }
      ]
    },
    {
      "name": "Cube.001_SciFi Structural Panelling.002_0",
      "primitives": [
        {
          "attributes": {
            "NORMAL": 10,
            "POSITION": 9,
            "TEXCOORD_0": 11,
            "TEXCOORD_1": 12,
            "TEXCOORD_2": 13
          },
          "indices": 14,
          "material": 2,
          "mode": 4
        }
      ]
    },
    {
      "name": "Cube.001_Material.002_0",
      "primitives": [
        {
          "attributes": {
            "NORMAL": 16,
            "POSITION": 15,
            "TEXCOORD_0": 17
          },
          "indices": 18,
          "material": 3,
          "mode": 4
        }
      ]
    },
    {
      "name": "Cube.002_Carbon Fibre.001_0",
      "primitives": [
        {
          "attributes": {
            "NORMAL": 20,
            "POSITION": 19,
            "TEXCOORD_0": 21
          },
          "indices": 22,
          "material": 0,
          "mode": 4
        }
      ]
    },
    {
      "name": "Cube.003_Carbon Fibre.001_0",
      "primitives": [
        {
          "attributes": {
            "NORMAL": 24,
            "POSITION": 23,
            "TEXCOORD_0": 25
          },
          "indices": 26,
          "material": 0,
          "mode": 4
        }
      ]
    },
    {
      "name": "Cube.004_Carbon Fibre.001_0",
      "primitives": [
        {
          "attributes": {
            "NORMAL": 28,
            "POSITION": 27,
            "TEXCOORD_0": 29
          },
          "indices": 30,
          "material": 0,
          "mode": 4
        }
      ]
    },
    {
      "name": "Cube.005_Carbon Fibre.001_0",
      "primitives": [
        {
          "attributes": {
            "NORMAL": 32,
            "POSITION": 31,
            "TEXCOORD_0": 33
          },
          "indices": 34,
          "material": 0,
          "mode": 4
        }
      ]
    },
    {
      "name": "Cube.007_white_0",
      "primitives": [
        {
          "attributes": {
            "NORMAL": 36,
            "POSITION": 35,
            "TEXCOORD_0": 37,
            "TEXCOORD_1": 38
          },
          "indices": 39,
          "material": 4,
          "mode": 4
        }
      ]
    },
    {
      "name": "Cube.007_SciFi Structural Panelling.002_0",
      "primitives": [
        {
          "attributes": {
            "NORMAL": 41,
            "POSITION": 40,
            "TEXCOORD_0": 42,
            "TEXCOORD_1": 43,
            "TEXCOORD_2": 44,
            "TEXCOORD_3": 45
          },
          "indices": 46,
          "material": 2,
          "mode": 4
        }
      ]
    },
    {
      "name": "Cube.008_SciFi Structural Panelling.002_0",
      "primitives": [
        {
          "attributes": {
            "NORMAL": 48,
            "POSITION": 47,
            "TEXCOORD_0": 49,
            "TEXCOORD_1": 50,
            "TEXCOORD_2": 51
          },
          "indices": 52,
          "material": 2,
          "mode": 4
        }
      ]
    },
    {
      "name": "Cylinder_Tyre_0",
      "primitives": [
        {
          "attributes": {
            "NORMAL": 54,
            "POSITION": 53,
            "TEXCOORD_0": 55,
            "TEXCOORD_1": 56,
            "TEXCOORD_2": 57
          },
          "indices": 58,
          "material": 5,
          "mode": 4
        }
      ]
    },
    {
      "name": "Cylinder.001_Tyre_0",
      "primitives": [
        {
          "attributes": {
            "NORMAL": 60,
            "POSITION": 59,
            "TEXCOORD_0": 61,
            "TEXCOORD_1": 62
          },
          "indices": 63,
          "material": 5,
          "mode": 4
        }
      ]
    },
    {
      "name": "Cylinder.002_Tyre_0",
      "primitives": [
        {
          "attributes": {
            "NORMAL": 65,
            "POSITION": 64,
            "TEXCOORD_0": 66,
            "TEXCOORD_1": 67
          },
          "indices": 68,
          "material": 5,
          "mode": 4
        }
      ]
    },
    {
      "name": "Cube.006_white_0",
      "primitives": [
        {
          "attributes": {
            "NORMAL": 70,
            "POSITION": 69,
            "TEXCOORD_0": 71,
            "TEXCOORD_1": 72
          },
          "indices": 73,
          "material": 4,
          "mode": 4
        }
      ]
    },
    {
      "name": "Cube.006_SciFi Structural Panelling.002_0",
      "primitives": [
        {
          "attributes": {
            "NORMAL": 75,
            "POSITION": 74,
            "TEXCOORD_0": 76,
            "TEXCOORD_1": 77,
            "TEXCOORD_2": 78,
            "TEXCOORD_3": 79
          },
          "indices": 80,
          "material": 2,
          "mode": 4
        }
      ]
    },
    {
      "name": "Cube.009_Carbon Fibre.001_0",
      "primitives": [
        {
          "attributes": {
            "NORMAL": 82,
            "POSITION": 81,
            "TEXCOORD_0": 83
          },
          "indices": 84,
          "material": 0,
          "mode": 4
        }
      ]
    },
    {
      "name": "Cube.009_Carbon Fibre_0",
      "primitives": [
        {
          "attributes": {
            "NORMAL": 86,
            "POSITION": 85,
            "TEXCOORD_0": 87
          },
          "indices": 88,
          "material": 6,
          "mode": 4
        }
      ]
    }
  ],
  "nodes": [
    {
      "children": [
        1
      ],
      "matrix": [
        1.0,
        0.0,
        0.0,
        0.0,
        0.0,
        2.220446049250313e-16,
        -1.0,
        0.0,
        0.0,
        1.0,
        2.220446049250313e-16,
        0.0,
        0.0,
        0.0,
        0.0,
        1.0
      ],
      "name": "Sketchfab_model"
    },
    {
      "children": [
        2
      ],
      "matrix": [
        0.009999999776482582,
        0.0,
        0.0,
        0.0,
        0.0,
        0.0,
        0.009999999776482582,
        0.0,
        0.0,
        -0.009999999776482582,
        0.0,
        0.0,
        0.0,
        0.0,
        0.0,
        1.0
      ],
      "name": "mq9 REAPER.fbx"
    },
    {
      "children": [
        3
      ],
      "name": "Object_2"
    },
    {
      "children": [
        4,
        6,
        10,
        12,
        14,
        16,
        18,
        21,
        23,
        25,
        27,
        29,
        32
      ],
      "name": "RootNode"
    },
    {
      "children": [
        5
      ],
      "name": "Cube",
      "rotation": [
        -0.7071068286895752,
        0.0,
        0.0,
        0.7071067094802856
      ],
      "scale": [
        67.40010070800781,
        67.40010070800781,
        67.40010070800781
      ],
      "translation": [
        0.0,
        232.88536071777344,
        679.6624755859375
      ]
    },
    {
      "mesh": 0,
      "name": "Cube_Carbon Fibre.001_0"
    },
    {
      "children": [
        7,
        8,
        9
      ],
      "name": "Cube.001",
      "rotation": [
        -0.7071068286895752,
        0.0,
        0.0,
        0.7071067094802856
      ],
      "scale": [
        100.0,
        100.0,
        14.111457824707031
      ],
      "translation": [
        0.0,
        222.0694580078125,
        -12.756464004516602
      ]
    },
    {
      "mesh": 1,
      "name": "Cube.001_red_0"
    },
    {
      "mesh": 2,
      "name": "Cube.001_SciFi Structural Panelling.002_0"
    },
    {
      "mesh": 3,
      "name": "Cube.001_Material.002_0"
    },
    {
      "children": [
        11
      ],
      "name": "Cube.002",
      "rotation": [
        -0.7071068286895752,
        0.0,
        0.0,
        0.7071067094802856
      ],
      "scale": [
        100.0,
        100.0,
        14.111457824707031
      ],
      "translation": [
        -4.579545475280611e-06,
        222.0694580078125,
        -185.90171813964844
      ]
    },
    {
      "mesh": 4,
      "name": "Cube.002_Carbon Fibre.001_0"
    },
    {
      "children": [
        13
      ],
      "name": "Cube.003",
      "rotation": [
        -0.7071068286895752,
        0.0,
        0.0,
        0.7071067094802856
      ],
      "scale": [
        100.0,
        100.0,
        14.111457824707031
      ],
      "translation": [
        0.0,
        222.0694580078125,
        -12.756464004516602
      ]
    },
    {
      "mesh": 5,
      "name": "Cube.003_Carbon Fibre.001_0"
    },
    {
      "children": [
        15
      ],
      "name": "Cube.004",
      "rotation": [
        -0.7071068286895752,
        0.0,
        0.0,
        0.7071067094802856
      ],
      "scale": [
        100.0,
        100.0,
        14.111457824707031
      ],
      "translation": [
        0.0,
        222.0694580078125,
        -12.756464004516602
      ]
    },
    {
      "mesh": 6,
      "name": "Cube.004_Carbon Fibre.001_0"
    },
    {
      "children": [
        17
      ],
      "name": "Cube.005",
      "rotation": [
        -0.7071068286895752,
        0.0,
        0.0,
        0.7071067094802856
      ],
      "scale": [
        100.0,
        100.0,
        14.111457824707031
      ],
      "translation": [
        0.0,
        222.0694580078125,
        -12.756464004516602
      ]
    },
    {
      "mesh": 7,
      "name": "Cube.005_Carbon Fibre.001_0"
    },
    {
      "children": [
        19,
        20
      ],
      "name": "Cube.007",
      "rotation": [
        0.20917800068855286,
        0.6754587888717651,
        -0.6754587888717651,
        -0.20917798578739166
      ],
      "scale": [
        99.99999237060547,
        100.0,
        12.447529792785645
      ],
      "translation": [
        -30.296701431274414,
        275.62872314453125,
        -561.83837890625
      ]
    },
    {
      "mesh": 8,
      "name": "Cube.007_white_0"
    },
    {
      "mesh": 9,
      "name": "Cube.007_SciFi Structural Panelling.002_0"
    },
    {
      "children": [
        22
      ],
      "name": "Cube.008",
      "rotation": [
        -0.5,
        0.5,
        -0.5,
        0.4999999701976776
      ],
      "scale": [
        30.793888092041016,
        71.99398803710938,
        8.961472511291504
      ],
      "translation": [
        0.0,
        210.01939392089844,
        -561.83837890625
      ]
    },
    {
      "mesh": 10,
      "name": "Cube.008_SciFi Structural Panelling.002_0"
    },
    {
      "children": [
        24
      ],
      "name": "Cylinder",
      "rotation": [
        0.7071068286895752,
        5.338507591545749e-08,
        -0.7071067690849304,
        5.338507946817117e-08
      ],
      "scale": [
        30.98065948486328,
        30.98065948486328,
        11.93069839477539
      ],
      "translation": [
        -2.144383337619824e-15,
        30.4359073638916,
        452.69647216796875
      ]
    },
    {
      "mesh": 11,
      "name": "Cylinder_Tyre_0"
    },
    {
      "children": [
        26
      ],
      "name": "Cylinder.001",
      "rotation": [
        0.7071068286895752,
        5.338507591545749e-08,
        -0.7071067690849304,
        5.338507946817117e-08
      ],
      "scale": [
        30.98065948486328,
        30.98065948486328,
        11.93069839477539
      ],
      "translation": [
        239.02655029296875,
        57.99123001098633,
        -312.9522705078125
      ]
    },
    {
      "mesh": 12,
      "name": "Cylinder.001_Tyre_0"
    },
    {
      "children": [
        28
      ],
      "name": "Cylinder.002",
      "rotation": [
        0.7071068286895752,
        5.338507591545749e-08,
        -0.7071067690849304,
        5.338507946817117e-08
      ],
      "scale": [
        30.98065948486328,
        30.98065948486328,
        11.93069839477539
      ],
      "translation": [
        -239.02699279785156,
        57.99123001098633,
        -312.9522705078125
      ]
    },
    {
      "mesh": 13,
      "name": "Cylinder.002_Tyre_0"
    },
    {
      "children": [
        30,
        31
      ],
      "name": "Cube.006",
      "rotation": [
        -0.6754583716392517,
        -0.20917969942092896,
        0.2091795802116394,
        0.6754581928253174
      ],
      "scale": [
        100.00000762939453,
        100.0,
        12.447529792785645
      ],
      "translation": [
        30.296701431274414,
        275.62872314453125,
        -561.83837890625
      ]
    },
    {
      "mesh": 14,
      "name": "Cube.006_white_0"
    },
    {
      "mesh": 15,
      "name": "Cube.006_SciFi Structural Panelling.002_0"
    },
    {
      "children": [
        33,
        34
      ],
      "name": "Cube.009",
      "rotation": [
        -0.0009139653411693871,
        -0.7071061730384827,
        0.7071062326431274,
        0.000913965399377048
      ],
      "scale": [
        18.40923309326172,
        3.0083415508270264,
        133.3001708984375
      ],
      "translation": [
        2.60770320892334e-06,
        265.6610107421875,
        -743.9301147460938
      ]
    },
    {
      "mesh": 16,
      "name": "Cube.009_Carbon Fibre.001_0"
    },
    {
      "mesh": 17,
      "name": "Cube.009_Carbon Fibre_0"
    }
  ],
  "scene": 0,
  "scenes": [
    {
      "name": "Sketchfab_Scene",
      "nodes": [
        0
      ]
    }
  ]
}
